<svg width="700" height="160" viewBox="0 0 700 160" fill="none" xmlns="http://www.w3.org/2000/svg">
<path d="M3.23464e-06 3.23464e-06H700V160H3.23464e-06V3.23464e-06Z" fill="#000D02"/>
<path d="M74 159.5C74 149.454 72.0859 139.506 68.3671 130.225C64.6482 120.943 59.1974 112.51 52.3259 105.406C45.4544 98.3027 37.2967 92.6677 28.3186 88.8232C19.3405 84.9787 9.71782 83 0 83L3.23464e-06 159.5H74Z" fill="url(#paint0_radial_9_29)" fill-opacity="0.08"/>
<path d="M699.5 74C689.454 74 679.506 72.0859 670.225 68.3671C660.943 64.6482 652.51 59.1974 645.406 52.3259C638.303 45.4544 632.668 37.2967 628.823 28.3186C624.979 19.3405 623 9.71782 623 0L699.5 3.23464e-06V74Z" fill="url(#paint1_radial_9_29)" fill-opacity="0.08"/>
<path d="M380 53C391.598 53 401 43.598 401 32C401 20.402 391.598 11 380 11C368.402 11 359 20.402 359 32C359 43.598 368.402 53 380 53Z" fill="url(#paint2_radial_9_29)" fill-opacity="0.08"/>
<path d="M133 53C144.598 53 154 43.598 154 32C154 20.402 144.598 11 133 11C121.402 11 112 20.402 112 32C112 43.598 121.402 53 133 53Z" fill="url(#paint3_radial_9_29)" fill-opacity="0.08"/>
<path d="M311.5 115C318.956 115 325 108.956 325 101.5C325 94.0442 318.956 88 311.5 88C304.044 88 298 94.0442 298 101.5C298 108.956 304.044 115 311.5 115Z" fill="url(#paint4_radial_9_29)" fill-opacity="0.08"/>
<path d="M584 143C595.598 143 605 133.598 605 122C605 110.402 595.598 101 584 101C572.402 101 563 110.402 563 122C563 133.598 572.402 143 584 143Z" fill="url(#paint5_radial_9_29)" fill-opacity="0.08"/>
<path d="M548.781 30.74C547.439 30.74 546.211 31.0403 545.098 31.641C544.003 32.2417 543.058 33.0632 542.263 34.1055C541.468 35.1302 540.849 36.3315 540.407 37.7095C539.983 39.0698 539.771 40.5273 539.771 42.082C539.771 42.9653 539.842 43.7162 539.984 44.3345C540.125 44.9528 540.31 45.4563 540.54 45.845C540.787 46.216 541.07 46.4898 541.388 46.6665C541.724 46.8432 542.086 46.9315 542.474 46.9315C543.075 46.9315 543.658 46.7107 544.224 46.269C544.789 45.8097 545.319 45.1913 545.813 44.414C546.326 43.6367 546.794 42.7268 547.218 41.6845C547.642 40.6422 548.004 39.5292 548.305 38.3455L549.285 30.74H548.781ZM547.51 48.4155C546.397 49.9702 545.142 51.198 543.747 52.099C542.369 52.9823 540.849 53.424 539.188 53.424C538.199 53.424 537.245 53.2297 536.326 52.841C535.408 52.4347 534.595 51.834 533.888 51.039C533.182 50.2263 532.617 49.2017 532.193 47.965C531.769 46.7107 531.557 45.2355 531.557 43.5395C531.557 41.0485 532.007 38.69 532.908 36.464C533.827 34.2203 535.099 32.2593 536.724 30.581C538.367 28.9027 540.31 27.5688 542.554 26.5795C544.798 25.5902 547.262 25.0955 549.948 25.0955C551.255 25.0955 552.58 25.1838 553.922 25.3605C555.265 25.5372 556.59 25.8552 557.898 26.3145L554.558 53H550.159C549.647 53 549.214 52.9382 548.861 52.8145C548.525 52.6732 548.251 52.4877 548.039 52.258C547.845 52.0283 547.704 51.7545 547.615 51.4365C547.545 51.1185 547.51 50.774 547.51 50.403V48.4155Z" fill="#A5D6A7"/>
<path d="M559.714 53L563.053 25.5195H567.293C568.141 25.5195 568.804 25.7227 569.281 26.129C569.758 26.5177 569.996 27.1625 569.996 28.0635V29.68C571.162 28.1253 572.39 26.977 573.68 26.235C574.969 25.4753 576.321 25.0955 577.734 25.0955C579.289 25.0955 580.578 25.599 581.603 26.606C582.628 27.613 583.281 29.0793 583.564 31.005C584.783 28.9733 586.117 27.4805 587.565 26.5265C589.014 25.5725 590.648 25.0955 592.468 25.0955C593.616 25.0955 594.65 25.3252 595.568 25.7845C596.487 26.2438 597.247 26.9152 597.847 27.7985C598.448 28.6818 598.863 29.7772 599.093 31.0845C599.34 32.3742 599.358 33.8582 599.146 35.5365L597.079 53H588.97L591.037 35.5365C591.125 34.7945 591.152 34.1673 591.117 33.655C591.099 33.1427 591.019 32.7363 590.878 32.436C590.754 32.1357 590.569 31.9237 590.321 31.8C590.074 31.6587 589.783 31.588 589.447 31.588C588.899 31.588 588.369 31.7382 587.857 32.0385C587.362 32.3212 586.885 32.7452 586.426 33.3105C585.984 33.8582 585.578 34.5295 585.207 35.3245C584.836 36.1018 584.509 36.9763 584.227 37.948L582.451 53H574.342L576.409 35.5365C576.497 34.7945 576.524 34.1673 576.488 33.655C576.471 33.1427 576.391 32.7363 576.25 32.436C576.126 32.1357 575.941 31.9237 575.693 31.8C575.446 31.6587 575.155 31.588 574.819 31.588C574.271 31.588 573.741 31.7382 573.229 32.0385C572.717 32.3388 572.231 32.7717 571.771 33.337C571.33 33.9023 570.923 34.5913 570.552 35.404C570.181 36.199 569.855 37.0912 569.572 38.0805L567.77 53H559.714Z" fill="#A5D6A7"/>
<path d="M613.685 25.5195L610.399 53H602.29L605.576 25.5195H613.685ZM615.222 17.9935C615.222 18.6472 615.081 19.2655 614.798 19.8485C614.516 20.4138 614.145 20.9173 613.685 21.359C613.226 21.783 612.696 22.1275 612.095 22.3925C611.512 22.6398 610.912 22.7635 610.293 22.7635C609.675 22.7635 609.083 22.6398 608.518 22.3925C607.953 22.1275 607.449 21.783 607.007 21.359C606.583 20.9173 606.239 20.4138 605.974 19.8485C605.709 19.2655 605.576 18.6472 605.576 17.9935C605.576 17.3398 605.709 16.7215 605.974 16.1385C606.239 15.5555 606.592 15.0432 607.034 14.6015C607.493 14.1598 608.006 13.8153 608.571 13.568C609.136 13.303 609.728 13.1705 610.346 13.1705C610.982 13.1705 611.592 13.2942 612.175 13.5415C612.758 13.7888 613.27 14.1333 613.712 14.575C614.171 15.0167 614.533 15.529 614.798 16.112C615.081 16.695 615.222 17.3222 615.222 17.9935Z" fill="#A5D6A7"/>
<path d="M626.023 30.263C627.348 28.4963 628.797 27.1978 630.369 26.3675C631.942 25.5195 633.567 25.0955 635.245 25.0955C636.376 25.0955 637.409 25.3252 638.346 25.7845C639.3 26.2438 640.086 26.9152 640.704 27.7985C641.34 28.6818 641.791 29.7772 642.056 31.0845C642.321 32.3742 642.347 33.8582 642.135 35.5365L640.068 53H631.853L633.92 35.5365C634.009 34.7945 634.035 34.1673 634 33.655C633.982 33.1427 633.894 32.7363 633.735 32.436C633.576 32.1357 633.355 31.9237 633.072 31.8C632.79 31.6587 632.454 31.588 632.065 31.588C631.465 31.588 630.837 31.7735 630.184 32.1445C629.53 32.5155 628.903 33.0455 628.302 33.7345C627.719 34.4058 627.18 35.2273 626.686 36.199C626.191 37.153 625.802 38.213 625.52 39.379L624.009 53H615.794L619.08 25.5195H623.32C624.168 25.5195 624.831 25.7227 625.308 26.129C625.785 26.5177 626.023 27.1625 626.023 28.0635V30.263Z" fill="#A5D6A7"/>
<path d="M659.639 30.687C658.279 30.687 657.086 31.2347 656.061 32.33C655.037 33.4077 654.277 34.8917 653.782 36.782C655.478 36.517 656.856 36.2343 657.916 35.934C658.976 35.6337 659.798 35.3157 660.381 34.98C660.964 34.6267 661.353 34.2557 661.547 33.867C661.759 33.4783 661.865 33.0543 661.865 32.595C661.865 32.1357 661.688 31.7028 661.335 31.2965C660.982 30.8902 660.416 30.687 659.639 30.687ZM668.702 47.912C667.73 48.866 666.776 49.6963 665.84 50.403C664.921 51.092 663.967 51.6662 662.978 52.1255C662.006 52.5672 660.964 52.894 659.851 53.106C658.756 53.318 657.554 53.424 656.247 53.424C654.622 53.424 653.129 53.1502 651.768 52.6025C650.408 52.0372 649.233 51.251 648.244 50.244C647.272 49.2193 646.513 47.9915 645.965 46.5605C645.435 45.1295 645.17 43.5395 645.17 41.7905C645.17 40.3242 645.329 38.8932 645.647 37.4975C645.983 36.1018 646.451 34.7945 647.051 33.5755C647.67 32.3388 648.421 31.2082 649.304 30.1835C650.187 29.1412 651.177 28.249 652.272 27.507C653.385 26.765 654.595 26.1908 655.902 25.7845C657.227 25.3605 658.632 25.1485 660.116 25.1485C661.582 25.1485 662.881 25.3605 664.011 25.7845C665.16 26.2085 666.123 26.765 666.9 27.454C667.677 28.1253 668.269 28.885 668.675 29.733C669.082 30.581 669.285 31.429 669.285 32.277C669.285 33.5313 669.038 34.6797 668.543 35.722C668.048 36.7467 667.183 37.6653 665.946 38.478C664.727 39.2907 663.075 39.9797 660.99 40.545C658.923 41.1103 656.318 41.552 653.173 41.87C653.208 43.7427 653.615 45.1118 654.392 45.9775C655.187 46.8432 656.353 47.276 657.89 47.276C658.614 47.276 659.241 47.2142 659.771 47.0905C660.301 46.9668 660.761 46.8078 661.149 46.6135C661.556 46.4192 661.918 46.216 662.236 46.004C662.554 45.792 662.854 45.5888 663.137 45.3945C663.437 45.2002 663.746 45.0412 664.064 44.9175C664.382 44.7938 664.745 44.732 665.151 44.732C665.416 44.732 665.672 44.8027 665.919 44.944C666.167 45.0677 666.388 45.2355 666.582 45.4475L668.702 47.912Z" fill="#A5D6A7"/>
<path d="M425.447 28.2727V53H421.717V28.2727H425.447Z" fill="#A5D6A7"/>
<path d="M434.201 41.9886V53H430.591V34.4545H434.056V37.473H434.286C434.712 36.491 435.38 35.7022 436.29 35.1065C437.207 34.5109 438.362 34.2131 439.755 34.2131C441.019 34.2131 442.125 34.4787 443.075 35.0099C444.025 35.5331 444.762 36.3139 445.285 37.3523C445.808 38.3906 446.07 39.6745 446.07 41.2038V53H442.46V41.6385C442.46 40.2943 442.109 39.2438 441.409 38.4872C440.709 37.7225 439.747 37.3402 438.523 37.3402C437.686 37.3402 436.942 37.5213 436.29 37.8835C435.646 38.2457 435.135 38.777 434.756 39.4773C434.386 40.1695 434.201 41.0066 434.201 41.9886Z" fill="#A5D6A7"/>
<path d="M464.808 38.9822L461.536 39.5618C461.399 39.1432 461.182 38.7448 460.884 38.3665C460.594 37.9882 460.2 37.6783 459.701 37.4368C459.202 37.1953 458.578 37.0746 457.83 37.0746C456.807 37.0746 455.954 37.304 455.27 37.7628C454.586 38.2135 454.244 38.7971 454.244 39.5135C454.244 40.1333 454.473 40.6323 454.932 41.0107C455.391 41.389 456.131 41.6989 457.153 41.9403L460.099 42.6165C461.806 43.0109 463.078 43.6186 463.915 44.4396C464.752 45.2607 465.17 46.3272 465.17 47.6392C465.17 48.75 464.848 49.7401 464.205 50.6094C463.569 51.4706 462.679 52.1468 461.536 52.6378C460.401 53.1288 459.085 53.3743 457.588 53.3743C455.511 53.3743 453.817 52.9316 452.505 52.0462C451.193 51.1527 450.388 49.8849 450.09 48.2429L453.58 47.7116C453.797 48.6212 454.244 49.3094 454.92 49.7763C455.596 50.2351 456.477 50.4645 457.564 50.4645C458.747 50.4645 459.693 50.219 460.401 49.728C461.11 49.2289 461.464 48.6212 461.464 47.9048C461.464 47.3253 461.246 46.8383 460.812 46.4439C460.385 46.0495 459.729 45.7517 458.844 45.5504L455.705 44.8622C453.974 44.4678 452.694 43.84 451.865 42.9787C451.044 42.1174 450.634 41.0268 450.634 39.7067C450.634 38.612 450.939 37.6541 451.551 36.8331C452.163 36.0121 453.008 35.3722 454.087 34.9134C455.165 34.4465 456.401 34.2131 457.793 34.2131C459.798 34.2131 461.375 34.6477 462.526 35.517C463.677 36.3783 464.438 37.5334 464.808 38.9822Z" fill="#A5D6A7"/>
<path d="M477.797 34.4545V37.3523H467.667V34.4545H477.797ZM470.383 30.0114H473.993V47.5547C473.993 48.255 474.098 48.7822 474.307 49.1364C474.517 49.4825 474.786 49.7199 475.116 49.8487C475.454 49.9695 475.821 50.0298 476.215 50.0298C476.505 50.0298 476.758 50.0097 476.976 49.9695C477.193 49.9292 477.362 49.897 477.483 49.8729L478.135 52.8551C477.925 52.9356 477.628 53.0161 477.241 53.0966C476.855 53.1851 476.372 53.2334 475.792 53.2415C474.843 53.2576 473.957 53.0885 473.136 52.7344C472.315 52.3802 471.651 51.8329 471.144 51.0923C470.637 50.3518 470.383 49.4221 470.383 48.3033V30.0114Z" fill="#A5D6A7"/>
<path d="M487.187 53.4105C486.012 53.4105 484.949 53.1932 484 52.7585C483.05 52.3158 482.297 51.6759 481.742 50.8388C481.194 50.0017 480.921 48.9754 480.921 47.7599C480.921 46.7135 481.122 45.8523 481.525 45.1761C481.927 44.5 482.47 43.9647 483.154 43.5703C483.839 43.1759 484.603 42.8781 485.449 42.6768C486.294 42.4756 487.155 42.3227 488.032 42.218C489.143 42.0893 490.045 41.9846 490.737 41.9041C491.429 41.8156 491.932 41.6747 492.246 41.4815C492.56 41.2884 492.717 40.9744 492.717 40.5398V40.4553C492.717 39.4008 492.419 38.5838 491.824 38.0043C491.236 37.4247 490.359 37.1349 489.191 37.1349C487.976 37.1349 487.018 37.4046 486.318 37.9439C485.626 38.4751 485.147 39.0668 484.881 39.7188L481.488 38.946C481.891 37.8191 482.478 36.9096 483.251 36.2173C484.032 35.517 484.929 35.0099 485.944 34.696C486.958 34.3741 488.024 34.2131 489.143 34.2131C489.884 34.2131 490.668 34.3016 491.498 34.4787C492.335 34.6477 493.115 34.9616 493.84 35.4205C494.572 35.8793 495.172 36.5353 495.639 37.3885C496.106 38.2337 496.339 39.3324 496.339 40.6847V53H492.814V50.4645H492.669C492.435 50.9313 492.085 51.3902 491.618 51.8409C491.151 52.2917 490.552 52.666 489.819 52.9638C489.087 53.2616 488.209 53.4105 487.187 53.4105ZM487.972 50.5128C488.97 50.5128 489.823 50.3156 490.532 49.9212C491.248 49.5268 491.791 49.0116 492.162 48.3757C492.54 47.7318 492.729 47.0436 492.729 46.3111V43.9205C492.6 44.0492 492.351 44.17 491.98 44.2827C491.618 44.3873 491.204 44.4799 490.737 44.5604C490.27 44.6328 489.815 44.7012 489.373 44.7656C488.93 44.822 488.56 44.8703 488.262 44.9105C487.561 44.9991 486.922 45.148 486.342 45.3572C485.77 45.5665 485.312 45.8684 484.966 46.2628C484.627 46.6491 484.458 47.1643 484.458 47.8082C484.458 48.7017 484.788 49.3778 485.449 49.8366C486.109 50.2874 486.95 50.5128 487.972 50.5128Z" fill="#A5D6A7"/>
<path d="M504.758 28.2727V53H501.148V28.2727H504.758Z" fill="#A5D6A7"/>
<path d="M513.224 28.2727V53H509.614V28.2727H513.224Z" fill="#A5D6A7"/>
<path d="M431.817 87.4929C431.737 86.6908 431.396 86.0677 430.793 85.6236C430.189 85.1795 429.371 84.9574 428.337 84.9574C427.634 84.9574 427.041 85.0568 426.557 85.2557C426.073 85.4479 425.702 85.7164 425.443 86.0611C425.191 86.4058 425.065 86.7969 425.065 87.2344C425.052 87.599 425.128 87.9171 425.294 88.1889C425.466 88.4607 425.702 88.696 426 88.8949C426.298 89.0871 426.643 89.2562 427.034 89.402C427.425 89.5412 427.843 89.6605 428.287 89.7599L430.116 90.1974C431.005 90.3963 431.82 90.6615 432.562 90.9929C433.305 91.3243 433.948 91.732 434.491 92.2159C435.035 92.6998 435.456 93.2699 435.754 93.9261C436.059 94.5824 436.215 95.3348 436.222 96.1832C436.215 97.4294 435.897 98.5099 435.267 99.4247C434.644 100.333 433.742 101.039 432.562 101.543C431.389 102.04 429.974 102.288 428.317 102.288C426.673 102.288 425.241 102.036 424.021 101.533C422.808 101.029 421.86 100.283 421.178 99.2955C420.501 98.3011 420.147 97.0715 420.114 95.6065H424.28C424.326 96.2893 424.522 96.8594 424.866 97.3168C425.218 97.7675 425.685 98.1089 426.268 98.3409C426.858 98.5663 427.525 98.679 428.267 98.679C428.996 98.679 429.629 98.5729 430.166 98.3608C430.71 98.1487 431.131 97.8537 431.429 97.4759C431.727 97.098 431.876 96.6638 431.876 96.1733C431.876 95.7159 431.741 95.3314 431.469 95.0199C431.204 94.7083 430.812 94.4432 430.295 94.2244C429.785 94.0057 429.159 93.8068 428.416 93.6278L426.199 93.071C424.482 92.6534 423.126 92.0005 422.132 91.1122C421.138 90.224 420.644 89.0275 420.651 87.5227C420.644 86.2898 420.972 85.2126 421.635 84.2912C422.304 83.3698 423.223 82.6506 424.389 82.1335C425.556 81.6165 426.882 81.358 428.366 81.358C429.878 81.358 431.197 81.6165 432.324 82.1335C433.457 82.6506 434.339 83.3698 434.969 84.2912C435.598 85.2126 435.923 86.2798 435.943 87.4929H431.817Z" fill="#A5D6A7"/>
<path d="M447.162 86.7273V89.9091H437.964V86.7273H447.162ZM440.052 83.0682H444.288V97.3068C444.288 97.6979 444.348 98.0028 444.467 98.2216C444.586 98.4337 444.752 98.5829 444.964 98.669C445.183 98.7552 445.435 98.7983 445.72 98.7983C445.919 98.7983 446.118 98.7817 446.316 98.7486C446.515 98.7088 446.668 98.679 446.774 98.6591L447.44 101.811C447.228 101.877 446.93 101.954 446.545 102.04C446.161 102.133 445.693 102.189 445.143 102.209C444.122 102.249 443.227 102.113 442.458 101.801C441.696 101.49 441.103 101.006 440.679 100.349C440.254 99.6932 440.046 98.8646 440.052 97.8636V83.0682Z" fill="#A5D6A7"/>
<path d="M456.657 102.298C455.113 102.298 453.777 101.97 452.65 101.314C451.53 100.651 450.665 99.7296 450.055 98.5497C449.445 97.3632 449.14 95.9877 449.14 94.4233C449.14 92.8456 449.445 91.4669 450.055 90.2869C450.665 89.1004 451.53 88.179 452.65 87.5227C453.777 86.8599 455.113 86.5284 456.657 86.5284C458.202 86.5284 459.534 86.8599 460.654 87.5227C461.781 88.179 462.65 89.1004 463.26 90.2869C463.869 91.4669 464.174 92.8456 464.174 94.4233C464.174 95.9877 463.869 97.3632 463.26 98.5497C462.65 99.7296 461.781 100.651 460.654 101.314C459.534 101.97 458.202 102.298 456.657 102.298ZM456.677 99.017C457.38 99.017 457.966 98.8182 458.437 98.4205C458.908 98.0161 459.262 97.4659 459.501 96.7699C459.746 96.0739 459.869 95.2817 459.869 94.3935C459.869 93.5052 459.746 92.7131 459.501 92.017C459.262 91.321 458.908 90.7708 458.437 90.3665C457.966 89.9621 457.38 89.7599 456.677 89.7599C455.968 89.7599 455.371 89.9621 454.887 90.3665C454.41 90.7708 454.049 91.321 453.804 92.017C453.565 92.7131 453.446 93.5052 453.446 94.3935C453.446 95.2817 453.565 96.0739 453.804 96.7699C454.049 97.4659 454.41 98.0161 454.887 98.4205C455.371 98.8182 455.968 99.017 456.677 99.017Z" fill="#A5D6A7"/>
<path d="M466.929 107.727V86.7273H471.105V89.2926H471.294C471.479 88.8816 471.748 88.464 472.099 88.0398C472.457 87.6089 472.921 87.2509 473.491 86.9659C474.068 86.6742 474.784 86.5284 475.639 86.5284C476.752 86.5284 477.78 86.8201 478.721 87.4034C479.663 87.9801 480.415 88.8518 480.978 90.0185C481.542 91.1785 481.824 92.6335 481.824 94.3835C481.824 96.0871 481.548 97.5256 480.998 98.6989C480.455 99.8655 479.712 100.75 478.771 101.354C477.836 101.95 476.789 102.249 475.629 102.249C474.807 102.249 474.108 102.113 473.531 101.841C472.961 101.569 472.493 101.228 472.129 100.817C471.764 100.399 471.486 99.9782 471.294 99.554H471.164V107.727H466.929ZM471.075 94.3636C471.075 95.2718 471.201 96.0639 471.453 96.7401C471.705 97.4162 472.069 97.9432 472.547 98.321C473.024 98.6922 473.604 98.8778 474.287 98.8778C474.976 98.8778 475.559 98.6889 476.037 98.3111C476.514 97.9266 476.875 97.3963 477.12 96.7202C477.372 96.0374 477.498 95.2519 477.498 94.3636C477.498 93.482 477.376 92.7064 477.13 92.0369C476.885 91.3674 476.524 90.8438 476.047 90.4659C475.569 90.0881 474.983 89.8991 474.287 89.8991C473.597 89.8991 473.014 90.0814 472.537 90.446C472.066 90.8106 471.705 91.3277 471.453 91.9972C471.201 92.6667 471.075 93.4555 471.075 94.3636Z" fill="#A5D6A7"/>
<path d="M496.592 102L490.944 81.6364H494.175L498.143 97.4062H498.332L502.458 81.6364H505.66L509.786 97.4162H509.975L513.933 81.6364H517.174L511.516 102H508.424L504.138 86.7472H503.979L499.694 102H496.592Z" fill="#A5D6A7"/>
<path d="M522.678 102.338C521.71 102.338 520.835 102.159 520.053 101.801C519.27 101.437 518.651 100.91 518.193 100.22C517.742 99.5308 517.517 98.6856 517.517 97.6847C517.517 96.8229 517.683 96.1136 518.014 95.5568C518.346 95 518.793 94.5592 519.357 94.2344C519.92 93.9096 520.55 93.6643 521.246 93.4986C521.942 93.3329 522.651 93.2069 523.374 93.1207C524.288 93.0147 525.031 92.9285 525.601 92.8622C526.171 92.7893 526.585 92.6733 526.844 92.5142C527.102 92.3551 527.232 92.0966 527.232 91.7386V91.669C527.232 90.8007 526.986 90.1278 526.496 89.6506C526.012 89.1733 525.289 88.9347 524.328 88.9347C523.327 88.9347 522.538 89.1567 521.962 89.6009C521.392 90.0384 520.997 90.5256 520.778 91.0625L517.984 90.4261C518.316 89.4981 518.8 88.7491 519.436 88.179C520.079 87.6023 520.818 87.1847 521.653 86.9261C522.489 86.661 523.367 86.5284 524.288 86.5284C524.898 86.5284 525.545 86.6013 526.227 86.7472C526.917 86.8864 527.56 87.1449 528.156 87.5227C528.759 87.9006 529.253 88.4408 529.638 89.1435C530.022 89.8395 530.214 90.7443 530.214 91.858V102H527.311V99.9119H527.192C527 100.296 526.711 100.674 526.327 101.045C525.942 101.417 525.448 101.725 524.845 101.97C524.242 102.215 523.519 102.338 522.678 102.338ZM523.324 99.9517C524.146 99.9517 524.848 99.7893 525.432 99.4645C526.022 99.1397 526.469 98.7154 526.774 98.1918C527.086 97.6615 527.241 97.0947 527.241 96.4915V94.5227C527.135 94.6288 526.93 94.7282 526.625 94.821C526.327 94.9072 525.985 94.9834 525.601 95.0497C525.216 95.1094 524.842 95.1657 524.477 95.2188C524.113 95.2652 523.808 95.3049 523.562 95.3381C522.986 95.411 522.459 95.5336 521.982 95.706C521.511 95.8783 521.133 96.1269 520.848 96.4517C520.57 96.7699 520.43 97.1941 520.43 97.7244C520.43 98.4602 520.702 99.017 521.246 99.3949C521.789 99.7661 522.482 99.9517 523.324 99.9517Z" fill="#A5D6A7"/>
<path d="M537.147 92.9318V102H534.174V86.7273H537.028V89.2131H537.217C537.568 88.4044 538.119 87.7547 538.868 87.2642C539.623 86.7737 540.574 86.5284 541.721 86.5284C542.762 86.5284 543.673 86.7472 544.456 87.1847C545.238 87.6155 545.844 88.2585 546.275 89.1136C546.706 89.9688 546.922 91.026 546.922 92.2855V102H543.948V92.6435C543.948 91.5365 543.66 90.6714 543.083 90.0483C542.507 89.4186 541.715 89.1037 540.707 89.1037C540.018 89.1037 539.404 89.2528 538.868 89.5511C538.337 89.8494 537.916 90.2869 537.605 90.8636C537.3 91.4337 537.147 92.1231 537.147 92.9318Z" fill="#A5D6A7"/>
<path d="M556.626 102.298C555.393 102.298 554.293 101.983 553.325 101.354C552.364 100.717 551.608 99.8125 551.058 98.6392C550.514 97.4593 550.243 96.044 550.243 94.3935C550.243 92.7429 550.518 91.331 551.068 90.1577C551.625 88.9844 552.387 88.0862 553.355 87.4631C554.323 86.84 555.42 86.5284 556.646 86.5284C557.594 86.5284 558.356 86.6875 558.933 87.0057C559.516 87.3172 559.967 87.6818 560.285 88.0994C560.61 88.517 560.862 88.8849 561.041 89.2031H561.22V81.6364H564.193V102H561.289V99.6236H561.041C560.862 99.9484 560.603 100.32 560.265 100.737C559.934 101.155 559.476 101.519 558.893 101.831C558.31 102.143 557.554 102.298 556.626 102.298ZM557.282 99.7628C558.137 99.7628 558.86 99.5374 559.45 99.0866C560.047 98.6293 560.497 97.9962 560.802 97.1875C561.114 96.3788 561.27 95.4375 561.27 94.3636C561.27 93.303 561.117 92.375 560.812 91.5795C560.507 90.7841 560.06 90.1643 559.47 89.7202C558.88 89.276 558.151 89.054 557.282 89.054C556.387 89.054 555.642 89.286 555.045 89.75C554.449 90.214 553.998 90.8471 553.693 91.6491C553.395 92.4512 553.245 93.3561 553.245 94.3636C553.245 95.3845 553.398 96.3026 553.703 97.1179C554.008 97.9332 554.458 98.5795 555.055 99.0568C555.658 99.5275 556.401 99.7628 557.282 99.7628Z" fill="#A5D6A7"/>
<path d="M575.018 102.308C573.514 102.308 572.218 101.987 571.131 101.344C570.05 100.694 569.215 99.7827 568.625 98.6094C568.042 97.4295 567.75 96.0473 567.75 94.4631C567.75 92.8987 568.042 91.5199 568.625 90.3267C569.215 89.1335 570.037 88.2022 571.091 87.5327C572.151 86.8632 573.391 86.5284 574.81 86.5284C575.671 86.5284 576.507 86.6709 577.315 86.956C578.124 87.241 578.85 87.6884 579.493 88.2983C580.136 88.9081 580.643 89.7003 581.014 90.6747C581.385 91.6425 581.571 92.8191 581.571 94.2045V95.2585H569.43V93.0312H578.658C578.658 92.2491 578.499 91.5563 578.18 90.9531C577.862 90.3433 577.415 89.8627 576.838 89.5114C576.268 89.16 575.598 88.9844 574.83 88.9844C573.994 88.9844 573.265 89.1899 572.642 89.6009C572.026 90.0052 571.548 90.5355 571.21 91.1918C570.879 91.8414 570.713 92.5474 570.713 93.3097V95.0497C570.713 96.0705 570.892 96.9389 571.25 97.6548C571.615 98.3707 572.122 98.9176 572.771 99.2955C573.421 99.6667 574.18 99.8523 575.048 99.8523C575.612 99.8523 576.125 99.7727 576.589 99.6136C577.053 99.4479 577.455 99.2026 577.793 98.8778C578.131 98.553 578.389 98.152 578.568 97.6747L581.382 98.1818C581.157 99.0104 580.752 99.7363 580.169 100.359C579.592 100.976 578.866 101.456 577.991 101.801C577.123 102.139 576.132 102.308 575.018 102.308Z" fill="#A5D6A7"/>
<path d="M584.87 102V86.7273H587.743V89.1534H587.902C588.181 88.3314 588.671 87.6851 589.374 87.2145C590.083 86.7372 590.885 86.4986 591.78 86.4986C591.966 86.4986 592.185 86.5052 592.436 86.5185C592.695 86.5317 592.897 86.5483 593.043 86.5682V89.4119C592.924 89.3788 592.712 89.3423 592.407 89.3026C592.102 89.2562 591.797 89.233 591.492 89.233C590.789 89.233 590.163 89.3821 589.613 89.6804C589.069 89.9721 588.638 90.3797 588.32 90.9034C588.002 91.4205 587.843 92.0104 587.843 92.6733V102H584.87Z" fill="#A5D6A7"/>
<path d="M595.616 102V86.7273H598.589V102H595.616ZM597.117 84.3707C596.6 84.3707 596.156 84.1984 595.785 83.8537C595.42 83.5024 595.238 83.0848 595.238 82.6009C595.238 82.1103 595.42 81.6927 595.785 81.348C596.156 80.9967 596.6 80.821 597.117 80.821C597.634 80.821 598.075 80.9967 598.44 81.348C598.811 81.6927 598.996 82.1103 598.996 82.6009C598.996 83.0848 598.811 83.5024 598.44 83.8537C598.075 84.1984 597.634 84.3707 597.117 84.3707Z" fill="#A5D6A7"/>
<path d="M605.561 92.9318V102H602.588V86.7273H605.442V89.2131H605.631C605.982 88.4044 606.533 87.7547 607.282 87.2642C608.037 86.7737 608.989 86.5284 610.135 86.5284C611.176 86.5284 612.087 86.7472 612.87 87.1847C613.652 87.6155 614.258 88.2585 614.689 89.1136C615.12 89.9688 615.336 91.026 615.336 92.2855V102H612.363V92.6435C612.363 91.5365 612.074 90.6714 611.497 90.0483C610.921 89.4186 610.129 89.1037 609.121 89.1037C608.432 89.1037 607.819 89.2528 607.282 89.5511C606.751 89.8494 606.33 90.2869 606.019 90.8636C605.714 91.4337 605.561 92.1231 605.561 92.9318Z" fill="#A5D6A7"/>
<path d="M625.726 108.045C624.513 108.045 623.469 107.886 622.594 107.568C621.726 107.25 621.016 106.829 620.466 106.305C619.916 105.782 619.505 105.208 619.233 104.585L621.789 103.531C621.968 103.823 622.206 104.131 622.505 104.456C622.81 104.787 623.221 105.069 623.738 105.301C624.261 105.533 624.934 105.649 625.756 105.649C626.883 105.649 627.814 105.374 628.55 104.824C629.286 104.28 629.654 103.412 629.654 102.219V99.2159H629.465C629.286 99.5407 629.027 99.902 628.689 100.3C628.358 100.697 627.9 101.042 627.317 101.334C626.734 101.625 625.975 101.771 625.04 101.771C623.834 101.771 622.747 101.49 621.779 100.926C620.818 100.356 620.055 99.5175 619.492 98.4105C618.935 97.2969 618.657 95.928 618.657 94.304C618.657 92.6799 618.932 91.2879 619.482 90.1278C620.039 88.9678 620.801 88.0795 621.769 87.4631C622.737 86.84 623.834 86.5284 625.06 86.5284C626.008 86.5284 626.774 86.6875 627.357 87.0057C627.94 87.3172 628.394 87.6818 628.719 88.0994C629.051 88.517 629.306 88.8849 629.485 89.2031H629.703V86.7273H632.617V102.338C632.617 103.651 632.312 104.728 631.702 105.57C631.092 106.411 630.267 107.035 629.226 107.439C628.192 107.843 627.025 108.045 625.726 108.045ZM625.696 99.3054C626.551 99.3054 627.274 99.1065 627.864 98.7088C628.461 98.3045 628.911 97.7277 629.216 96.9787C629.528 96.223 629.684 95.3182 629.684 94.2642C629.684 93.2367 629.531 92.3319 629.226 91.5497C628.921 90.7675 628.474 90.1577 627.884 89.7202C627.294 89.276 626.565 89.054 625.696 89.054C624.801 89.054 624.056 89.286 623.459 89.75C622.863 90.2074 622.412 90.8305 622.107 91.6193C621.809 92.4081 621.659 93.2898 621.659 94.2642C621.659 95.2652 621.812 96.1435 622.117 96.8991C622.422 97.6548 622.873 98.2448 623.469 98.669C624.072 99.0933 624.815 99.3054 625.696 99.3054Z" fill="#A5D6A7"/>
<path d="M427.83 136H421.237V115.636H428.038C430.034 115.636 431.747 116.044 433.179 116.859C434.611 117.668 435.708 118.831 436.47 120.349C437.239 121.861 437.624 123.674 437.624 125.788C437.624 127.91 437.236 129.732 436.46 131.257C435.691 132.782 434.578 133.955 433.119 134.777C431.661 135.592 429.898 136 427.83 136ZM424.31 133.315H427.661C429.212 133.315 430.501 133.024 431.528 132.44C432.556 131.85 433.325 130.999 433.835 129.885C434.346 128.765 434.601 127.399 434.601 125.788C434.601 124.191 434.346 122.835 433.835 121.722C433.331 120.608 432.579 119.763 431.578 119.186C430.577 118.609 429.334 118.321 427.849 118.321H424.31V133.315Z" fill="#A5D6A7"/>
<path d="M450.88 129.666V120.727H453.863V136H450.94V133.355H450.781C450.43 134.17 449.866 134.85 449.091 135.393C448.322 135.93 447.364 136.199 446.217 136.199C445.236 136.199 444.368 135.983 443.612 135.553C442.863 135.115 442.273 134.469 441.842 133.614C441.418 132.759 441.206 131.701 441.206 130.442V120.727H444.179V130.084C444.179 131.125 444.467 131.953 445.044 132.57C445.62 133.186 446.369 133.494 447.291 133.494C447.848 133.494 448.401 133.355 448.951 133.077C449.508 132.798 449.969 132.377 450.333 131.814C450.705 131.25 450.887 130.535 450.88 129.666Z" fill="#A5D6A7"/>
<path d="M457.858 136V120.727H460.732V123.153H460.891C461.169 122.331 461.66 121.685 462.362 121.214C463.071 120.737 463.874 120.499 464.768 120.499C464.954 120.499 465.173 120.505 465.425 120.518C465.683 120.532 465.885 120.548 466.031 120.568V123.412C465.912 123.379 465.7 123.342 465.395 123.303C465.09 123.256 464.785 123.233 464.48 123.233C463.777 123.233 463.151 123.382 462.601 123.68C462.057 123.972 461.626 124.38 461.308 124.903C460.99 125.42 460.831 126.01 460.831 126.673V136H457.858Z" fill="#A5D6A7"/>
<path d="M468.604 136V120.727H471.577V136H468.604ZM470.105 118.371C469.588 118.371 469.144 118.198 468.773 117.854C468.408 117.502 468.226 117.085 468.226 116.601C468.226 116.11 468.408 115.693 468.773 115.348C469.144 114.997 469.588 114.821 470.105 114.821C470.623 114.821 471.063 114.997 471.428 115.348C471.799 115.693 471.985 116.11 471.985 116.601C471.985 117.085 471.799 117.502 471.428 117.854C471.063 118.198 470.623 118.371 470.105 118.371Z" fill="#A5D6A7"/>
<path d="M478.55 126.932V136H475.577V120.727H478.43V123.213H478.619C478.971 122.404 479.521 121.755 480.27 121.264C481.026 120.774 481.977 120.528 483.124 120.528C484.164 120.528 485.076 120.747 485.858 121.185C486.64 121.616 487.247 122.259 487.678 123.114C488.108 123.969 488.324 125.026 488.324 126.286V136H485.351V126.643C485.351 125.536 485.063 124.671 484.486 124.048C483.909 123.419 483.117 123.104 482.109 123.104C481.42 123.104 480.807 123.253 480.27 123.551C479.74 123.849 479.319 124.287 479.007 124.864C478.702 125.434 478.55 126.123 478.55 126.932Z" fill="#A5D6A7"/>
<path d="M498.714 142.045C497.501 142.045 496.457 141.886 495.582 141.568C494.714 141.25 494.005 140.829 493.455 140.305C492.904 139.782 492.493 139.208 492.222 138.585L494.777 137.531C494.956 137.823 495.195 138.131 495.493 138.456C495.798 138.787 496.209 139.069 496.726 139.301C497.25 139.533 497.922 139.649 498.744 139.649C499.871 139.649 500.803 139.374 501.538 138.824C502.274 138.28 502.642 137.412 502.642 136.219V133.216H502.453C502.274 133.541 502.016 133.902 501.678 134.3C501.346 134.697 500.889 135.042 500.305 135.334C499.722 135.625 498.963 135.771 498.028 135.771C496.822 135.771 495.735 135.49 494.767 134.926C493.806 134.356 493.044 133.518 492.48 132.411C491.923 131.297 491.645 129.928 491.645 128.304C491.645 126.68 491.92 125.288 492.47 124.128C493.027 122.968 493.789 122.08 494.757 121.463C495.725 120.84 496.822 120.528 498.048 120.528C498.996 120.528 499.762 120.688 500.345 121.006C500.929 121.317 501.383 121.682 501.707 122.099C502.039 122.517 502.294 122.885 502.473 123.203H502.692V120.727H505.605V136.338C505.605 137.651 505.3 138.728 504.69 139.57C504.08 140.411 503.255 141.035 502.214 141.439C501.18 141.843 500.014 142.045 498.714 142.045ZM498.685 133.305C499.54 133.305 500.262 133.107 500.852 132.709C501.449 132.304 501.9 131.728 502.205 130.979C502.516 130.223 502.672 129.318 502.672 128.264C502.672 127.237 502.519 126.332 502.214 125.55C501.91 124.768 501.462 124.158 500.872 123.72C500.282 123.276 499.553 123.054 498.685 123.054C497.79 123.054 497.044 123.286 496.447 123.75C495.851 124.207 495.4 124.83 495.095 125.619C494.797 126.408 494.648 127.29 494.648 128.264C494.648 129.265 494.8 130.143 495.105 130.899C495.41 131.655 495.861 132.245 496.457 132.669C497.061 133.093 497.803 133.305 498.685 133.305Z" fill="#A5D6A7"/>
<path d="M515.998 119.186V115.636H532.723V119.186H526.488V136H522.233V119.186H515.998Z" fill="#A5D6A7"/>
<path d="M540.143 136.298C538.572 136.298 537.219 135.98 536.086 135.344C534.959 134.701 534.091 133.793 533.481 132.619C532.871 131.439 532.566 130.044 532.566 128.433C532.566 126.862 532.871 125.483 533.481 124.297C534.091 123.11 534.949 122.186 536.056 121.523C537.17 120.86 538.476 120.528 539.974 120.528C540.981 120.528 541.919 120.691 542.788 121.016C543.663 121.334 544.425 121.814 545.075 122.457C545.731 123.1 546.241 123.909 546.606 124.884C546.97 125.851 547.153 126.985 547.153 128.284V129.447H534.256V126.822H543.165C543.165 126.213 543.033 125.672 542.768 125.202C542.503 124.731 542.135 124.363 541.664 124.098C541.2 123.826 540.66 123.69 540.043 123.69C539.4 123.69 538.83 123.839 538.333 124.138C537.843 124.429 537.458 124.824 537.18 125.321C536.901 125.812 536.759 126.358 536.752 126.962V129.457C536.752 130.213 536.891 130.866 537.17 131.416C537.455 131.966 537.856 132.391 538.373 132.689C538.89 132.987 539.503 133.136 540.212 133.136C540.683 133.136 541.114 133.07 541.505 132.938C541.896 132.805 542.231 132.606 542.509 132.341C542.788 132.076 543 131.751 543.146 131.366L547.063 131.625C546.864 132.566 546.457 133.388 545.84 134.091C545.23 134.787 544.441 135.33 543.474 135.722C542.513 136.106 541.402 136.298 540.143 136.298Z" fill="#A5D6A7"/>
<path d="M562.624 125.082L558.746 125.321C558.68 124.99 558.538 124.691 558.319 124.426C558.1 124.154 557.812 123.939 557.454 123.78C557.103 123.614 556.682 123.531 556.191 123.531C555.535 123.531 554.981 123.67 554.531 123.949C554.08 124.221 553.854 124.585 553.854 125.043C553.854 125.407 554 125.715 554.292 125.967C554.584 126.219 555.084 126.421 555.793 126.574L558.558 127.131C560.042 127.436 561.149 127.926 561.879 128.602C562.608 129.278 562.972 130.167 562.972 131.267C562.972 132.268 562.677 133.146 562.087 133.902C561.504 134.658 560.702 135.248 559.681 135.672C558.667 136.089 557.497 136.298 556.171 136.298C554.149 136.298 552.539 135.877 551.339 135.036C550.146 134.187 549.446 133.034 549.241 131.575L553.407 131.357C553.533 131.973 553.838 132.444 554.322 132.768C554.806 133.087 555.425 133.246 556.181 133.246C556.924 133.246 557.52 133.103 557.971 132.818C558.428 132.527 558.66 132.152 558.667 131.695C558.66 131.31 558.498 130.995 558.18 130.75C557.862 130.498 557.371 130.306 556.708 130.173L554.063 129.646C552.572 129.348 551.461 128.831 550.732 128.095C550.01 127.359 549.648 126.421 549.648 125.281C549.648 124.3 549.914 123.455 550.444 122.746C550.981 122.036 551.733 121.49 552.701 121.105C553.675 120.721 554.816 120.528 556.121 120.528C558.05 120.528 559.568 120.936 560.675 121.751C561.789 122.567 562.439 123.677 562.624 125.082Z" fill="#A5D6A7"/>
<path d="M573.763 120.727V123.909H564.566V120.727H573.763ZM566.654 117.068H570.89V131.307C570.89 131.698 570.949 132.003 571.069 132.222C571.188 132.434 571.354 132.583 571.566 132.669C571.784 132.755 572.036 132.798 572.321 132.798C572.52 132.798 572.719 132.782 572.918 132.749C573.117 132.709 573.269 132.679 573.375 132.659L574.042 135.811C573.829 135.877 573.531 135.954 573.147 136.04C572.762 136.133 572.295 136.189 571.745 136.209C570.724 136.249 569.829 136.113 569.06 135.801C568.298 135.49 567.704 135.006 567.28 134.349C566.856 133.693 566.647 132.865 566.654 131.864V117.068Z" fill="#A5D6A7"/>
<path d="M589.038 125.082L585.161 125.321C585.094 124.99 584.952 124.691 584.733 124.426C584.514 124.154 584.226 123.939 583.868 123.78C583.517 123.614 583.096 123.531 582.605 123.531C581.949 123.531 581.395 123.67 580.945 123.949C580.494 124.221 580.268 124.585 580.268 125.043C580.268 125.407 580.414 125.715 580.706 125.967C580.998 126.219 581.498 126.421 582.207 126.574L584.972 127.131C586.456 127.436 587.563 127.926 588.293 128.602C589.022 129.278 589.386 130.167 589.386 131.267C589.386 132.268 589.091 133.146 588.501 133.902C587.918 134.658 587.116 135.248 586.095 135.672C585.081 136.089 583.911 136.298 582.585 136.298C580.563 136.298 578.953 135.877 577.753 135.036C576.56 134.187 575.86 133.034 575.655 131.575L579.821 131.357C579.947 131.973 580.252 132.444 580.736 132.768C581.22 133.087 581.839 133.246 582.595 133.246C583.338 133.246 583.934 133.103 584.385 132.818C584.842 132.527 585.074 132.152 585.081 131.695C585.074 131.31 584.912 130.995 584.594 130.75C584.276 130.498 583.785 130.306 583.122 130.173L580.477 129.646C578.986 129.348 577.875 128.831 577.146 128.095C576.424 127.359 576.062 126.421 576.062 125.281C576.062 124.3 576.328 123.455 576.858 122.746C577.395 122.036 578.147 121.49 579.115 121.105C580.089 120.721 581.23 120.528 582.536 120.528C584.464 120.528 585.982 120.936 587.089 121.751C588.203 122.567 588.853 123.677 589.038 125.082Z" fill="#A5D6A7"/>
<path d="M594.529 136.259C593.873 136.259 593.31 136.027 592.839 135.562C592.375 135.092 592.143 134.528 592.143 133.872C592.143 133.223 592.375 132.666 592.839 132.202C593.31 131.738 593.873 131.506 594.529 131.506C595.166 131.506 595.723 131.738 596.2 132.202C596.677 132.666 596.916 133.223 596.916 133.872C596.916 134.31 596.803 134.711 596.578 135.075C596.359 135.433 596.071 135.722 595.713 135.94C595.355 136.152 594.96 136.259 594.529 136.259Z" fill="#A5D6A7"/>
<path d="M23.4389 53V28.2727H27.9183V39.6342H28.2202L37.8672 28.2727H43.3366L33.7741 39.3686L43.4212 53H38.0362L30.6591 42.3991L27.9183 45.6349V53H23.4389Z" fill="#A5D6A7"/>
<path d="M53.1044 53.3622C51.245 53.3622 49.6392 52.9759 48.2869 52.2031C46.9427 51.4223 45.9084 50.3196 45.1839 48.8949C44.4595 47.4621 44.0973 45.7758 44.0973 43.8359C44.0973 41.9283 44.4595 40.254 45.1839 38.8132C45.9164 37.3643 46.9387 36.2375 48.2507 35.4325C49.5627 34.6196 51.1042 34.2131 52.875 34.2131C54.018 34.2131 55.0966 34.3982 56.1108 34.7685C57.133 35.1307 58.0346 35.6941 58.8153 36.4588C59.6042 37.2235 60.224 38.1974 60.6747 39.3807C61.1255 40.5559 61.3509 41.9564 61.3509 43.5824V44.9226H46.1499V41.9766H57.1612C57.1532 41.1394 56.9721 40.3949 56.6179 39.7429C56.2637 39.0829 55.7687 38.5637 55.1328 38.1854C54.505 37.8071 53.7725 37.6179 52.9354 37.6179C52.0419 37.6179 51.2571 37.8352 50.581 38.2699C49.9048 38.6965 49.3776 39.2599 48.9993 39.9602C48.629 40.6525 48.4399 41.4131 48.4318 42.2422V44.8139C48.4318 45.8925 48.629 46.8182 49.0234 47.5909C49.4179 48.3556 49.9692 48.9432 50.6776 49.3537C51.3859 49.7562 52.215 49.9574 53.1648 49.9574C53.8007 49.9574 54.3762 49.8688 54.8913 49.6918C55.4065 49.5066 55.8532 49.237 56.2315 48.8828C56.6098 48.5286 56.8956 48.09 57.0888 47.5668L61.1697 48.0256C60.9122 49.1042 60.4212 50.0459 59.6967 50.8509C58.9804 51.6477 58.0627 52.2675 56.9439 52.7102C55.825 53.1449 54.5452 53.3622 53.1044 53.3622Z" fill="#A5D6A7"/>
<path d="M73.2587 53.3622C71.3993 53.3622 69.7935 52.9759 68.4412 52.2031C67.097 51.4223 66.0627 50.3196 65.3382 48.8949C64.6138 47.4621 64.2516 45.7758 64.2516 43.8359C64.2516 41.9283 64.6138 40.254 65.3382 38.8132C66.0707 37.3643 67.093 36.2375 68.405 35.4325C69.717 34.6196 71.2585 34.2131 73.0293 34.2131C74.1723 34.2131 75.2509 34.3982 76.2651 34.7685C77.2873 35.1307 78.1889 35.6941 78.9696 36.4588C79.7585 37.2235 80.3783 38.1974 80.829 39.3807C81.2798 40.5559 81.5051 41.9564 81.5051 43.5824V44.9226H66.3042V41.9766H77.3155C77.3075 41.1394 77.1264 40.3949 76.7722 39.7429C76.418 39.0829 75.923 38.5637 75.2871 38.1854C74.6593 37.8071 73.9268 37.6179 73.0897 37.6179C72.1962 37.6179 71.4114 37.8352 70.7353 38.2699C70.0591 38.6965 69.5319 39.2599 69.1536 39.9602C68.7833 40.6525 68.5942 41.4131 68.5861 42.2422V44.8139C68.5861 45.8925 68.7833 46.8182 69.1777 47.5909C69.5721 48.3556 70.1235 48.9432 70.8319 49.3537C71.5402 49.7562 72.3693 49.9574 73.3191 49.9574C73.955 49.9574 74.5305 49.8688 75.0456 49.6918C75.5608 49.5066 76.0075 49.237 76.3858 48.8828C76.7641 48.5286 77.0499 48.09 77.2431 47.5668L81.324 48.0256C81.0665 49.1042 80.5755 50.0459 79.851 50.8509C79.1346 51.6477 78.217 52.2675 77.0982 52.7102C75.9793 53.1449 74.6995 53.3622 73.2587 53.3622Z" fill="#A5D6A7"/>
<path d="M85.2028 59.9545V34.4545H89.5011V37.5213H89.7546C89.98 37.0705 90.2979 36.5916 90.7085 36.0845C91.119 35.5694 91.6744 35.1307 92.3746 34.7685C93.0749 34.3982 93.9684 34.2131 95.055 34.2131C96.4878 34.2131 97.7797 34.5793 98.9308 35.3118C100.09 36.0362 101.007 37.1108 101.684 38.5355C102.368 39.9522 102.71 41.6908 102.71 43.7514C102.71 45.7879 102.376 47.5185 101.708 48.9432C101.04 50.3679 100.13 51.4545 98.979 52.2031C97.828 52.9517 96.524 53.326 95.0671 53.326C94.0046 53.326 93.1232 53.1489 92.4229 52.7947C91.7227 52.4406 91.1592 52.014 90.7326 51.5149C90.314 51.0078 89.988 50.5289 89.7546 50.0781H89.5735V59.9545H85.2028ZM89.489 43.7273C89.489 44.9266 89.658 45.977 89.9961 46.8786C90.3422 47.7801 90.8372 48.4844 91.4812 48.9915C92.1332 49.4905 92.922 49.7401 93.8477 49.7401C94.8136 49.7401 95.6225 49.4825 96.2745 48.9673C96.9265 48.4441 97.4175 47.7318 97.7475 46.8303C98.0856 45.9207 98.2546 44.8864 98.2546 43.7273C98.2546 42.5762 98.0896 41.554 97.7596 40.6605C97.4296 39.767 96.9386 39.0668 96.2866 38.5597C95.6346 38.0526 94.8216 37.799 93.8477 37.799C92.9139 37.799 92.1211 38.0445 91.4691 38.5355C90.8171 39.0265 90.3221 39.7147 89.984 40.6001C89.654 41.4856 89.489 42.5279 89.489 43.7273Z" fill="#A5D6A7"/>
<path d="M129.918 35.1911C129.951 34.0722 129.608 33.215 128.892 32.6193C128.184 32.0237 127.165 31.7259 125.837 31.7259C124.904 31.7259 124.079 31.8667 123.362 32.1484C122.654 32.4221 122.082 32.8044 121.648 33.2955C121.213 33.7784 120.943 34.3298 120.839 34.9496C120.75 35.4567 120.795 35.8994 120.972 36.2777C121.149 36.656 121.418 36.978 121.781 37.2436C122.151 37.5092 122.569 37.7306 123.036 37.9077C123.511 38.0848 123.994 38.2337 124.485 38.3544L126.707 38.9339C127.592 39.1513 128.437 39.4451 129.242 39.8153C130.047 40.1776 130.743 40.6444 131.331 41.2159C131.927 41.7794 132.361 42.4595 132.635 43.2564C132.909 44.0533 132.953 44.987 132.768 46.0575C132.526 47.5064 131.943 48.7822 131.017 49.8849C130.099 50.9796 128.892 51.8369 127.395 52.4567C125.906 53.0684 124.171 53.3743 122.191 53.3743C120.275 53.3743 118.657 53.0765 117.337 52.4808C116.017 51.8771 115.051 51.0038 114.44 49.8608C113.836 48.7178 113.643 47.3293 113.86 45.6953H118.267C118.179 46.5566 118.319 47.273 118.69 47.8445C119.068 48.416 119.611 48.8426 120.32 49.1243C121.028 49.406 121.849 49.5469 122.783 49.5469C123.757 49.5469 124.638 49.402 125.427 49.1122C126.216 48.8144 126.86 48.4039 127.359 47.8807C127.866 47.3494 128.176 46.7296 128.288 46.0213C128.401 45.3854 128.308 44.8542 128.011 44.4276C127.713 44.0009 127.25 43.6468 126.622 43.3651C126.002 43.0753 125.262 42.8177 124.401 42.5923L121.72 41.8679C119.78 41.3366 118.307 40.5398 117.301 39.4773C116.303 38.4148 115.949 36.9981 116.239 35.2273C116.48 33.7623 117.088 32.4865 118.062 31.3999C119.036 30.3052 120.255 29.456 121.72 28.8523C123.185 28.2405 124.787 27.9347 126.526 27.9347C128.28 27.9347 129.765 28.2405 130.981 28.8523C132.204 29.464 133.098 30.3172 133.661 31.4119C134.233 32.4986 134.422 33.7583 134.229 35.1911H129.918Z" fill="#A5D6A7"/>
<path d="M139.248 53L137.099 34.4545H141.555L142.641 47.4943H142.81L148.316 34.4545H152.723L153.882 47.4219H154.063L159.448 34.4545H163.915L155.572 53H151.02L149.62 40.4673H149.366L143.812 53H139.248Z" fill="#A5D6A7"/>
<path d="M163.876 53L166.967 34.4545H171.338L168.247 53H163.876ZM169.792 31.7983C169.092 31.7983 168.512 31.5649 168.054 31.098C167.595 30.6312 167.394 30.0717 167.45 29.4197C167.506 28.7678 167.8 28.2083 168.331 27.7415C168.871 27.2746 169.486 27.0412 170.179 27.0412C170.879 27.0412 171.454 27.2746 171.905 27.7415C172.364 28.2083 172.565 28.7678 172.509 29.4197C172.461 30.0717 172.167 30.6312 171.627 31.098C171.096 31.5649 170.484 31.7983 169.792 31.7983Z" fill="#A5D6A7"/>
<path d="M185.093 34.4545L184.525 37.8352H173.876L174.432 34.4545H185.093ZM177.788 30.0114H182.159L179.261 47.4219C179.173 48.0095 179.189 48.4602 179.309 48.7741C179.438 49.08 179.644 49.2893 179.925 49.402C180.215 49.5147 180.541 49.571 180.903 49.571C181.169 49.571 181.418 49.5509 181.652 49.5107C181.885 49.4624 182.07 49.4261 182.207 49.402L182.4 52.8189C182.135 52.8994 181.777 52.9879 181.326 53.0845C180.883 53.1811 180.352 53.2375 179.732 53.2536C178.621 53.2777 177.655 53.1087 176.834 52.7464C176.021 52.3762 175.426 51.8087 175.047 51.044C174.677 50.2713 174.593 49.3054 174.794 48.1463L177.788 30.0114Z" fill="#A5D6A7"/>
<path d="M193.499 53.3622C191.648 53.3622 190.127 52.9557 188.935 52.1428C187.744 51.3298 186.911 50.2069 186.436 48.7741C185.969 47.3333 185.893 45.6752 186.207 43.7997C186.513 41.9162 187.144 40.254 188.102 38.8132C189.068 37.3643 190.284 36.2375 191.749 35.4325C193.214 34.6196 194.852 34.2131 196.663 34.2131C198.168 34.2131 199.452 34.4908 200.514 35.0462C201.585 35.5935 202.382 36.3703 202.905 37.3764C203.436 38.3745 203.641 39.5417 203.521 40.8778H199.331C199.315 39.9844 199.037 39.2398 198.498 38.6442C197.959 38.0405 197.17 37.7386 196.131 37.7386C195.23 37.7386 194.401 37.9801 193.644 38.4631C192.888 38.938 192.248 39.6222 191.724 40.5156C191.201 41.4091 190.839 42.4796 190.638 43.7273C190.429 44.991 190.433 46.0777 190.65 46.9872C190.875 47.8887 191.282 48.585 191.869 49.076C192.465 49.5589 193.218 49.8004 194.127 49.8004C194.771 49.8004 195.371 49.6797 195.926 49.4382C196.482 49.1887 196.969 48.8305 197.387 48.3636C197.814 47.8968 198.148 47.3293 198.389 46.6612H202.567C202.237 47.9732 201.649 49.1364 200.804 50.1506C199.967 51.1567 198.929 51.9455 197.689 52.517C196.449 53.0805 195.053 53.3622 193.499 53.3622Z" fill="#A5D6A7"/>
<path d="M211.263 42.1335L209.476 53H205.093L209.198 28.2727H213.485L211.939 37.6058H212.169C212.756 36.5514 213.557 35.7223 214.571 35.1186C215.593 34.5149 216.821 34.2131 218.254 34.2131C219.526 34.2131 220.596 34.4827 221.465 35.022C222.335 35.5613 222.946 36.3501 223.301 37.3885C223.663 38.4268 223.723 39.6946 223.482 41.1918L221.502 53H217.119L218.978 41.8679C219.179 40.6203 219.014 39.6503 218.483 38.9581C217.96 38.2578 217.131 37.9077 215.996 37.9077C215.215 37.9077 214.495 38.0767 213.835 38.4148C213.175 38.7448 212.619 39.2237 212.169 39.8516C211.726 40.4794 211.424 41.2401 211.263 42.1335Z" fill="#A5D6A7"/>
<path d="M225.933 53L229.024 34.4545H233.394L230.303 53H225.933ZM231.849 31.7983C231.149 31.7983 230.569 31.5649 230.11 31.098C229.651 30.6312 229.45 30.0717 229.507 29.4197C229.563 28.7678 229.857 28.2083 230.388 27.7415C230.927 27.2746 231.543 27.0412 232.235 27.0412C232.936 27.0412 233.511 27.2746 233.962 27.7415C234.421 28.2083 234.622 28.7678 234.566 29.4197C234.517 30.0717 234.223 30.6312 233.684 31.098C233.153 31.5649 232.541 31.7983 231.849 31.7983Z" fill="#A5D6A7"/>
<path d="M240.98 42.1335L239.193 53H234.81L237.901 34.4545H242.091L241.559 37.6058H241.789C242.368 36.5675 243.181 35.7424 244.228 35.1307C245.274 34.5189 246.493 34.2131 247.886 34.2131C249.15 34.2131 250.212 34.4867 251.074 35.0341C251.935 35.5734 252.547 36.3662 252.909 37.4126C253.271 38.451 253.327 39.7107 253.078 41.1918L251.098 53H246.727L248.574 41.8679C248.783 40.6364 248.627 39.6705 248.103 38.9702C247.588 38.2618 246.759 37.9077 245.616 37.9077C244.851 37.9077 244.147 38.0767 243.503 38.4148C242.859 38.7448 242.316 39.2237 241.873 39.8516C241.439 40.4794 241.141 41.2401 240.98 42.1335Z" fill="#A5D6A7"/>
<path d="M262.423 60.3409C260.845 60.3409 259.529 60.1276 258.475 59.701C257.42 59.2824 256.607 58.719 256.036 58.0107C255.464 57.3023 255.11 56.5175 254.973 55.6562L259.078 54.7024C259.199 55.0646 259.392 55.4228 259.658 55.777C259.932 56.1392 260.334 56.437 260.865 56.6705C261.397 56.9119 262.105 57.0327 262.99 57.0327C264.23 57.0327 265.313 56.7308 266.238 56.1271C267.164 55.5234 267.735 54.5414 267.953 53.1811L268.508 49.6676H268.291C268.001 50.1184 267.603 50.5812 267.096 51.0561C266.596 51.531 265.965 51.9294 265.2 52.2514C264.443 52.5734 263.534 52.7344 262.471 52.7344C261.047 52.7344 259.811 52.4003 258.765 51.7322C257.718 51.0561 256.966 50.05 256.507 48.7138C256.056 47.3696 256 45.6873 256.338 43.6669C256.668 41.6304 257.288 39.9119 258.197 38.5114C259.115 37.1027 260.213 36.0362 261.493 35.3118C262.773 34.5793 264.125 34.2131 265.55 34.2131C266.637 34.2131 267.502 34.3982 268.146 34.7685C268.79 35.1307 269.277 35.5694 269.607 36.0845C269.937 36.5916 270.178 37.0705 270.331 37.5213H270.561L271.068 34.4545H275.378L272.263 53.3018C272.006 54.8875 271.414 56.1996 270.488 57.2379C269.563 58.2843 268.4 59.0611 266.999 59.5682C265.606 60.0833 264.081 60.3409 262.423 60.3409ZM264.21 49.3054C265.136 49.3054 265.965 49.08 266.697 48.6293C267.43 48.1785 268.041 47.5305 268.532 46.6854C269.023 45.8402 269.365 44.826 269.559 43.6428C269.752 42.4756 269.744 41.4534 269.534 40.576C269.333 39.6986 268.943 39.0185 268.363 38.5355C267.784 38.0445 267.027 37.799 266.093 37.799C265.119 37.799 264.266 38.0526 263.534 38.5597C262.809 39.0668 262.214 39.763 261.747 40.6484C261.288 41.5258 260.966 42.5239 260.781 43.6428C260.604 44.7777 260.604 45.7718 260.781 46.625C260.966 47.4702 261.34 48.1302 261.904 48.6051C262.475 49.072 263.244 49.3054 264.21 49.3054Z" fill="#A5D6A7"/>
<path d="M24.2841 73.0277L24.9119 69.2727H44.6406L44.0128 73.0277H36.37L32.8928 94H28.4496L31.9268 73.0277H24.2841Z" fill="#A5D6A7"/>
<path d="M46.9105 94.3743C45.7353 94.3743 44.7131 94.165 43.8438 93.7465C42.9744 93.3198 42.3345 92.692 41.924 91.8629C41.5215 91.0339 41.4209 90.0116 41.6222 88.7962C41.7992 87.7498 42.1373 86.8845 42.6364 86.2003C43.1435 85.5161 43.7633 84.9687 44.4957 84.5582C45.2363 84.1397 46.0412 83.8258 46.9105 83.6165C47.7879 83.4072 48.6813 83.2543 49.5909 83.1577C50.7017 83.045 51.5992 82.9403 52.2834 82.8438C52.9756 82.7472 53.4948 82.6023 53.8409 82.4091C54.187 82.2079 54.3963 81.902 54.4688 81.4915V81.419C54.6136 80.5095 54.4688 79.8052 54.0341 79.3061C53.5994 78.8071 52.875 78.5575 51.8608 78.5575C50.7983 78.5575 49.9048 78.791 49.1804 79.2578C48.456 79.7247 47.9287 80.276 47.5987 80.9119L43.6385 80.3324C44.1375 79.2055 44.8217 78.2637 45.6911 77.5071C46.5604 76.7424 47.5625 76.1709 48.6974 75.7926C49.8404 75.4062 51.0599 75.2131 52.3558 75.2131C53.2412 75.2131 54.1065 75.3177 54.9517 75.527C55.8049 75.7363 56.5575 76.0824 57.2095 76.5653C57.8696 77.0402 58.3525 77.6882 58.6584 78.5092C58.9723 79.3303 59.0246 80.3565 58.8153 81.5881L56.7507 94H52.549L52.9837 91.4524H52.8388C52.4927 91.9676 52.0419 92.4505 51.4865 92.9013C50.9311 93.344 50.2711 93.7022 49.5064 93.9759C48.7417 94.2415 47.8764 94.3743 46.9105 94.3743ZM48.5646 91.1626C49.442 91.1626 50.2308 90.9896 50.9311 90.6435C51.6314 90.2893 52.2069 89.8224 52.6577 89.2429C53.1084 88.6634 53.3902 88.0315 53.5028 87.3473L53.8651 85.1619C53.7041 85.2746 53.4545 85.3793 53.1165 85.4759C52.7784 85.5724 52.4001 85.657 51.9815 85.7294C51.571 85.8018 51.1645 85.8662 50.7621 85.9226C50.3596 85.9789 50.0135 86.0272 49.7237 86.0675C49.0556 86.156 48.4439 86.3009 47.8885 86.5021C47.3411 86.7034 46.8864 86.9851 46.5241 87.3473C46.17 87.7015 45.9486 88.1603 45.8601 88.7237C45.7313 89.5206 45.9205 90.1283 46.4276 90.5469C46.9347 90.9574 47.647 91.1626 48.5646 91.1626Z" fill="#A5D6A7"/>
<path d="M61.3388 94L65.4439 69.2727H69.8146L68.2933 78.5213H68.4865C68.7763 78.0706 69.1667 77.5916 69.6577 77.0845C70.1567 76.5694 70.7886 76.1307 71.5533 75.7685C72.3179 75.3982 73.2436 75.2131 74.3303 75.2131C75.763 75.2131 76.9946 75.5793 78.0249 76.3118C79.0552 77.0362 79.7917 78.1108 80.2344 79.5355C80.6771 80.9522 80.7294 82.6908 80.3913 84.7514C80.0533 86.7879 79.4335 88.5185 78.532 89.9432C77.6304 91.3679 76.5398 92.4545 75.2599 93.2031C73.9801 93.9517 72.6117 94.326 71.1548 94.326C70.0923 94.326 69.2391 94.1489 68.5952 93.7947C67.9593 93.4406 67.4723 93.014 67.1342 92.5149C66.7962 92.0078 66.5507 91.5289 66.3977 91.0781H66.12L65.6371 94H61.3388ZM67.1705 84.7273C66.9773 85.9266 66.9732 86.977 67.1584 87.8785C67.3516 88.7801 67.7299 89.4844 68.2933 89.9915C68.8648 90.4905 69.6174 90.7401 70.5511 90.7401C71.509 90.7401 72.3542 90.4825 73.0866 89.9673C73.8272 89.4441 74.4389 88.7318 74.9219 87.8303C75.4048 86.9207 75.7429 85.8864 75.9361 84.7273C76.1212 83.5762 76.1212 82.554 75.9361 81.6605C75.759 80.767 75.3847 80.0668 74.8132 79.5597C74.2498 79.0526 73.4851 78.799 72.5192 78.799C71.5774 78.799 70.7403 79.0445 70.0078 79.5355C69.2753 80.0265 68.6676 80.7147 68.1847 81.6001C67.7017 82.4856 67.3636 83.5279 67.1705 84.7273Z" fill="#A5D6A7"/>
<path d="M99.4771 80.3565L95.4565 80.7912C95.4163 80.3807 95.2915 79.9983 95.0822 79.6442C94.8729 79.29 94.559 79.0083 94.1404 78.799C93.7299 78.5817 93.1987 78.473 92.5467 78.473C91.5969 78.473 90.7638 78.6863 90.0474 79.1129C89.331 79.5395 88.9245 80.0869 88.8279 80.755C88.7394 81.254 88.8601 81.6605 89.1902 81.9744C89.5202 82.2884 90.1319 82.554 91.0254 82.7713L94.0922 83.4474C95.7825 83.8258 96.9979 84.4375 97.7385 85.2827C98.487 86.1278 98.7486 87.2346 98.5233 88.603C98.3301 89.746 97.831 90.7521 97.0261 91.6215C96.2212 92.4827 95.1909 93.1548 93.9352 93.6378C92.6876 94.1207 91.3031 94.3622 89.7818 94.3622C87.4717 94.3622 85.6928 93.8833 84.4451 92.9254C83.2056 91.9595 82.5898 90.6314 82.5978 88.941L86.8961 88.5305C86.9444 89.3677 87.2382 89.9995 87.7775 90.4261C88.3168 90.8447 89.0654 91.058 90.0233 91.066C91.1019 91.0741 92.0114 90.8487 92.752 90.3899C93.5005 89.9231 93.9231 89.3556 94.0197 88.6875C94.1002 88.1884 93.9754 87.782 93.6454 87.468C93.3234 87.1541 92.7479 86.9046 91.9189 86.7195L88.8762 86.0554C87.1537 85.6771 85.9262 85.0372 85.1937 84.1357C84.4693 83.2261 84.2238 82.0791 84.4572 80.6946C84.6504 79.5677 85.1213 78.5978 85.8699 77.7848C86.6265 76.9638 87.5964 76.3319 88.7797 75.8892C89.9629 75.4384 91.287 75.2131 92.752 75.2131C94.9574 75.2131 96.6196 75.6759 97.7385 76.6016C98.8573 77.5272 99.4369 78.7789 99.4771 80.3565Z" fill="#A5D6A7"/>
<path d="M116.598 94L109.619 69.2727H114.437L118.892 87.4439H119.121L123.878 69.2727H128.261L133.03 87.456H133.248L137.703 69.2727H142.52L135.542 94H131.123L126.172 76.6499H125.979L121.017 94H116.598Z" fill="#A5D6A7"/>
<path d="M149.804 83.1335V94H145.433V69.2727H149.707V78.6058H149.925C150.359 77.5594 151.031 76.7344 151.941 76.1307C152.859 75.5189 154.026 75.2131 155.442 75.2131C156.73 75.2131 157.853 75.4827 158.811 76.022C159.769 76.5613 160.509 77.3501 161.033 78.3885C161.564 79.4268 161.83 80.6946 161.83 82.1918V94H157.459V82.8679C157.459 81.6203 157.137 80.6503 156.493 79.9581C155.857 79.2578 154.964 78.9077 153.812 78.9077C153.04 78.9077 152.348 79.0767 151.736 79.4148C151.132 79.7448 150.657 80.2237 150.311 80.8516C149.973 81.4794 149.804 82.2401 149.804 83.1335Z" fill="#A5D6A7"/>
<path d="M166.285 94V75.4545H170.656V94H166.285ZM168.482 72.8224C167.79 72.8224 167.194 72.593 166.695 72.1342C166.196 71.6674 165.947 71.108 165.947 70.456C165.947 69.7959 166.196 69.2365 166.695 68.7777C167.194 68.3108 167.79 68.0774 168.482 68.0774C169.183 68.0774 169.778 68.3108 170.269 68.7777C170.768 69.2365 171.018 69.7959 171.018 70.456C171.018 71.108 170.768 71.6674 170.269 72.1342C169.778 72.593 169.183 72.8224 168.482 72.8224Z" fill="#A5D6A7"/>
<path d="M179.521 69.2727V94H175.15V69.2727H179.521Z" fill="#A5D6A7"/>
<path d="M192.225 94.3622C190.366 94.3622 188.76 93.9759 187.408 93.2031C186.064 92.4223 185.029 91.3196 184.305 89.8949C183.581 88.4621 183.218 86.7758 183.218 84.8359C183.218 82.9283 183.581 81.254 184.305 79.8132C185.038 78.3643 186.06 77.2375 187.372 76.4325C188.684 75.6196 190.225 75.2131 191.996 75.2131C193.139 75.2131 194.218 75.3982 195.232 75.7685C196.254 76.1307 197.156 76.6941 197.936 77.4588C198.725 78.2235 199.345 79.1974 199.796 80.3807C200.247 81.5559 200.472 82.9564 200.472 84.5824V85.9226H185.271V82.9766H196.282C196.274 82.1394 196.093 81.3949 195.739 80.7429C195.385 80.0829 194.89 79.5637 194.254 79.1854C193.626 78.8071 192.894 78.6179 192.056 78.6179C191.163 78.6179 190.378 78.8352 189.702 79.2699C189.026 79.6965 188.499 80.2599 188.12 80.9602C187.75 81.6525 187.561 82.4131 187.553 83.2422V85.8139C187.553 86.8925 187.75 87.8182 188.145 88.5909C188.539 89.3556 189.09 89.9432 189.799 90.3537C190.507 90.7562 191.336 90.9574 192.286 90.9574C192.922 90.9574 193.497 90.8688 194.012 90.6918C194.528 90.5066 194.974 90.237 195.353 89.8828C195.731 89.5286 196.017 89.09 196.21 88.5668L200.291 89.0256C200.033 90.1042 199.542 91.0459 198.818 91.8509C198.101 92.6477 197.184 93.2675 196.065 93.7102C194.946 94.1449 193.666 94.3622 192.225 94.3622Z" fill="#A5D6A7"/>
<path d="M211.106 69.2727H216.165L222.214 80.2116H222.455L228.504 69.2727H233.563L224.568 84.7756V94H220.101V84.7756L211.106 69.2727Z" fill="#A5D6A7"/>
<path d="M241.179 94.3622C239.368 94.3622 237.798 93.9638 236.47 93.1669C235.142 92.37 234.112 91.2552 233.379 89.8224C232.655 88.3897 232.293 86.7154 232.293 84.7997C232.293 82.884 232.655 81.2057 233.379 79.7649C234.112 78.3241 235.142 77.2053 236.47 76.4084C237.798 75.6115 239.368 75.2131 241.179 75.2131C242.99 75.2131 244.56 75.6115 245.888 76.4084C247.216 77.2053 248.242 78.3241 248.967 79.7649C249.699 81.2057 250.065 82.884 250.065 84.7997C250.065 86.7154 249.699 88.3897 248.967 89.8224C248.242 91.2552 247.216 92.37 245.888 93.1669C244.56 93.9638 242.99 94.3622 241.179 94.3622ZM241.203 90.8608C242.185 90.8608 243.006 90.5911 243.666 90.0518C244.326 89.5045 244.817 88.772 245.139 87.8544C245.469 86.9368 245.634 85.9145 245.634 84.7876C245.634 83.6527 245.469 82.6264 245.139 81.7088C244.817 80.7831 244.326 80.0466 243.666 79.4993C243.006 78.9519 242.185 78.6783 241.203 78.6783C240.197 78.6783 239.36 78.9519 238.692 79.4993C238.032 80.0466 237.537 80.7831 237.207 81.7088C236.885 82.6264 236.724 83.6527 236.724 84.7876C236.724 85.9145 236.885 86.9368 237.207 87.8544C237.537 88.772 238.032 89.5045 238.692 90.0518C239.36 90.5911 240.197 90.8608 241.203 90.8608Z" fill="#A5D6A7"/>
<path d="M265.595 86.2003V75.4545H269.966V94H265.728V90.7038H265.535C265.116 91.7422 264.428 92.5914 263.47 93.2514C262.521 93.9115 261.349 94.2415 259.957 94.2415C258.741 94.2415 257.667 93.9718 256.733 93.4325C255.807 92.8852 255.083 92.0923 254.56 91.054C254.037 90.0076 253.775 88.7438 253.775 87.2628V75.4545H258.146V86.5866C258.146 87.7618 258.468 88.6956 259.112 89.3878C259.756 90.08 260.601 90.4261 261.647 90.4261C262.291 90.4261 262.915 90.2692 263.519 89.9553C264.122 89.6413 264.617 89.1745 265.004 88.5547C265.398 87.9268 265.595 87.142 265.595 86.2003Z" fill="#A5D6A7"/>
<path d="M36.2372 117.686C36.1567 116.801 35.7985 116.112 35.1626 115.621C34.5348 115.122 33.6373 114.873 32.4702 114.873C31.6974 114.873 31.0535 114.973 30.5384 115.175C30.0232 115.376 29.6368 115.654 29.3793 116.008C29.1217 116.354 28.9889 116.752 28.9808 117.203C28.9647 117.573 29.0372 117.899 29.1982 118.181C29.3672 118.463 29.6087 118.712 29.9226 118.93C30.2446 119.139 30.6309 119.324 31.0817 119.485C31.5324 119.646 32.0395 119.787 32.603 119.908L34.728 120.391C35.9515 120.656 37.0301 121.01 37.9638 121.453C38.9055 121.896 39.6944 122.423 40.3303 123.035C40.9742 123.647 41.4612 124.351 41.7912 125.148C42.1212 125.945 42.2902 126.838 42.2983 127.828C42.2902 129.39 41.8958 130.73 41.1151 131.849C40.3343 132.968 39.2114 133.825 37.7464 134.42C36.2895 135.016 34.5308 135.314 32.4702 135.314C30.4015 135.314 28.5985 135.004 27.0611 134.384C25.5237 133.764 24.3284 132.823 23.4751 131.559C22.6219 130.295 22.1832 128.697 22.1591 126.766H27.8821C27.9304 127.562 28.1437 128.227 28.522 128.758C28.9003 129.289 29.4195 129.692 30.0795 129.965C30.7476 130.239 31.5204 130.376 32.3977 130.376C33.2027 130.376 33.8868 130.267 34.4503 130.05C35.0218 129.832 35.4605 129.531 35.7663 129.144C36.0722 128.758 36.2292 128.315 36.2372 127.816C36.2292 127.349 36.0843 126.951 35.8026 126.621C35.5208 126.283 35.0862 125.993 34.4986 125.751C33.919 125.502 33.1785 125.272 32.277 125.063L29.6932 124.46C27.5521 123.969 25.8658 123.176 24.6342 122.081C23.4027 120.978 22.791 119.489 22.799 117.614C22.791 116.084 23.2015 114.744 24.0305 113.593C24.8596 112.442 26.0066 111.545 27.4716 110.901C28.9366 110.257 30.6068 109.935 32.4822 109.935C34.398 109.935 36.0601 110.261 37.4688 110.913C38.8854 111.557 39.9841 112.462 40.7649 113.629C41.5457 114.796 41.9441 116.149 41.9602 117.686H36.2372Z" fill="#A5D6A7"/>
<path d="M51.2209 124.423V135H45.3168V110.273H51.0277V119.859H51.233C51.6515 118.716 52.3357 117.823 53.2855 117.179C54.2434 116.535 55.4145 116.213 56.799 116.213C58.103 116.213 59.2379 116.503 60.2038 117.082C61.1697 117.654 61.9183 118.463 62.4496 119.509C62.9889 120.556 63.2545 121.779 63.2464 123.18V135H57.3423V124.339C57.3504 123.308 57.0928 122.504 56.5696 121.924C56.0464 121.344 55.3099 121.055 54.3601 121.055C53.7403 121.055 53.1929 121.192 52.718 121.465C52.2512 121.731 51.8849 122.113 51.6193 122.612C51.3617 123.111 51.2289 123.715 51.2209 124.423Z" fill="#A5D6A7"/>
<path d="M75.589 135.35C73.641 135.35 71.9668 134.952 70.5662 134.155C69.1737 133.35 68.0991 132.231 67.3425 130.798C66.5939 129.357 66.2196 127.687 66.2196 125.788C66.2196 123.88 66.5939 122.21 67.3425 120.777C68.0991 119.336 69.1737 118.217 70.5662 117.42C71.9668 116.616 73.641 116.213 75.589 116.213C77.5369 116.213 79.2071 116.616 80.5996 117.42C82.0002 118.217 83.0748 119.336 83.8233 120.777C84.58 122.21 84.9583 123.88 84.9583 125.788C84.9583 127.687 84.58 129.357 83.8233 130.798C83.0748 132.231 82.0002 133.35 80.5996 134.155C79.2071 134.952 77.5369 135.35 75.589 135.35ZM75.6252 130.895C76.3335 130.895 76.9332 130.678 77.4242 130.243C77.9152 129.808 78.2895 129.205 78.5471 128.432C78.8127 127.659 78.9455 126.766 78.9455 125.751C78.9455 124.721 78.8127 123.82 78.5471 123.047C78.2895 122.274 77.9152 121.67 77.4242 121.236C76.9332 120.801 76.3335 120.584 75.6252 120.584C74.8927 120.584 74.2729 120.801 73.7658 121.236C73.2667 121.67 72.8844 122.274 72.6188 123.047C72.3612 123.82 72.2324 124.721 72.2324 125.751C72.2324 126.766 72.3612 127.659 72.6188 128.432C72.8844 129.205 73.2667 129.808 73.7658 130.243C74.2729 130.678 74.8927 130.895 75.6252 130.895Z" fill="#A5D6A7"/>
<path d="M99.948 126.995V116.455H105.84V135H100.214V131.547H100.02C99.6099 132.682 98.9096 133.583 97.9196 134.251C96.9376 134.911 95.7503 135.241 94.3578 135.241C93.094 135.241 91.9833 134.952 91.0254 134.372C90.0675 133.793 89.323 132.984 88.7917 131.945C88.2605 130.899 87.9908 129.675 87.9828 128.275V116.455H93.8869V127.116C93.8949 128.122 94.1606 128.915 94.6838 129.494C95.207 130.074 95.9193 130.364 96.8208 130.364C97.4084 130.364 97.9357 130.235 98.4025 129.977C98.8774 129.712 99.2517 129.329 99.5254 128.83C99.8071 128.323 99.948 127.711 99.948 126.995Z" fill="#A5D6A7"/>
<path d="M115.502 110.273V135H109.598V110.273H115.502Z" fill="#A5D6A7"/>
<path d="M126.034 135.266C124.665 135.266 123.422 134.911 122.303 134.203C121.184 133.495 120.29 132.432 119.622 131.016C118.954 129.599 118.62 127.84 118.62 125.739C118.62 123.558 118.966 121.763 119.659 120.354C120.351 118.946 121.256 117.903 122.375 117.227C123.502 116.551 124.713 116.213 126.009 116.213C126.983 116.213 127.816 116.382 128.509 116.72C129.201 117.05 129.772 117.477 130.223 118C130.674 118.523 131.016 119.067 131.249 119.63H131.37V110.273H137.274V135H131.431V131.994H131.249C131 132.565 130.646 133.1 130.187 133.599C129.728 134.098 129.153 134.501 128.46 134.807C127.776 135.113 126.967 135.266 126.034 135.266ZM128.086 130.665C128.803 130.665 129.414 130.464 129.921 130.062C130.428 129.651 130.819 129.076 131.093 128.335C131.366 127.595 131.503 126.725 131.503 125.727C131.503 124.713 131.366 123.84 131.093 123.107C130.827 122.375 130.436 121.811 129.921 121.417C129.414 121.022 128.803 120.825 128.086 120.825C127.354 120.825 126.734 121.027 126.227 121.429C125.72 121.831 125.333 122.399 125.068 123.131C124.81 123.864 124.681 124.729 124.681 125.727C124.681 126.725 124.814 127.595 125.08 128.335C125.345 129.076 125.728 129.651 126.227 130.062C126.734 130.464 127.354 130.665 128.086 130.665Z" fill="#A5D6A7"/>
<path d="M146.912 124.423V135H141.008V116.455H146.623V119.859H146.828C147.238 118.724 147.939 117.835 148.929 117.191C149.919 116.539 151.098 116.213 152.466 116.213C153.77 116.213 154.901 116.507 155.859 117.094C156.825 117.674 157.574 118.487 158.105 119.533C158.644 120.572 158.91 121.787 158.902 123.18V135H152.998V124.339C153.006 123.308 152.744 122.504 152.213 121.924C151.69 121.344 150.961 121.055 150.027 121.055C149.408 121.055 148.86 121.192 148.385 121.465C147.918 121.731 147.556 122.113 147.299 122.612C147.049 123.111 146.92 123.715 146.912 124.423Z" fill="#A5D6A7"/>
<path d="M167.471 110.273V113.026C167.471 113.79 167.318 114.563 167.012 115.344C166.714 116.116 166.324 116.841 165.841 117.517C165.358 118.193 164.847 118.765 164.308 119.232L161.796 117.855C162.167 117.243 162.497 116.555 162.786 115.79C163.076 115.018 163.221 114.1 163.221 113.038V110.273H167.471Z" fill="#A5D6A7"/>
<path d="M181.957 116.455V120.801H170.257V116.455H181.957ZM172.708 112.011H178.612V129.168C178.612 129.531 178.669 129.824 178.781 130.05C178.902 130.267 179.075 130.424 179.3 130.521C179.526 130.609 179.795 130.653 180.109 130.653C180.335 130.653 180.572 130.633 180.822 130.593C181.079 130.545 181.272 130.505 181.401 130.472L182.295 134.734C182.013 134.815 181.615 134.915 181.099 135.036C180.592 135.157 179.985 135.233 179.276 135.266C177.892 135.33 176.705 135.169 175.714 134.783C174.732 134.388 173.98 133.777 173.457 132.947C172.942 132.118 172.692 131.076 172.708 129.82V112.011Z" fill="#A5D6A7"/>
<path d="M189.521 127.732V127.418C189.529 125.961 189.666 124.802 189.931 123.94C190.205 123.079 190.592 122.387 191.091 121.864C191.59 121.332 192.197 120.845 192.914 120.403C193.405 120.097 193.843 119.763 194.23 119.401C194.624 119.03 194.934 118.62 195.159 118.169C195.385 117.71 195.498 117.199 195.498 116.636C195.498 116 195.349 115.448 195.051 114.982C194.753 114.515 194.351 114.152 193.843 113.895C193.344 113.637 192.785 113.509 192.165 113.509C191.594 113.509 191.05 113.633 190.535 113.883C190.028 114.124 189.605 114.495 189.267 114.994C188.937 115.485 188.752 116.108 188.712 116.865H184.414C184.454 115.336 184.824 114.056 185.525 113.026C186.233 111.995 187.167 111.223 188.326 110.707C189.493 110.192 190.781 109.935 192.189 109.935C193.727 109.935 195.079 110.204 196.246 110.744C197.421 111.283 198.335 112.052 198.987 113.05C199.647 114.04 199.977 115.215 199.977 116.575C199.977 117.493 199.828 118.314 199.53 119.038C199.24 119.763 198.826 120.407 198.287 120.97C197.747 121.534 197.107 122.037 196.367 122.479C195.715 122.882 195.18 123.3 194.761 123.735C194.35 124.17 194.045 124.681 193.843 125.268C193.65 125.848 193.55 126.564 193.542 127.418V127.732H189.521ZM191.622 135.266C190.897 135.266 190.274 135.008 189.75 134.493C189.227 133.978 188.966 133.35 188.966 132.609C188.966 131.885 189.227 131.265 189.75 130.75C190.274 130.235 190.897 129.977 191.622 129.977C192.338 129.977 192.958 130.235 193.481 130.75C194.012 131.265 194.278 131.885 194.278 132.609C194.278 133.1 194.153 133.547 193.904 133.95C193.662 134.352 193.34 134.674 192.938 134.915C192.543 135.149 192.105 135.266 191.622 135.266Z" fill="#A5D6A7"/>
<defs>
<radialGradient id="paint0_radial_9_29" cx="0" cy="0" r="1" gradientUnits="userSpaceOnUse" gradientTransform="translate(584 122) scale(21)">
<stop offset="0.62178" stop-color="#00FF0A"/>
<stop offset="1" stop-color="#567057" stop-opacity="0.43"/>
</radialGradient>
<radialGradient id="paint1_radial_9_29" cx="0" cy="0" r="1" gradientUnits="userSpaceOnUse" gradientTransform="translate(584 122) scale(21)">
<stop offset="0.62178" stop-color="#00FF0A"/>
<stop offset="1" stop-color="#567057" stop-opacity="0.43"/>
</radialGradient>
<radialGradient id="paint2_radial_9_29" cx="0" cy="0" r="1" gradientUnits="userSpaceOnUse" gradientTransform="translate(584 122) scale(21)">
<stop offset="0.62178" stop-color="#00FF0A"/>
<stop offset="1" stop-color="#567057" stop-opacity="0.43"/>
</radialGradient>
<radialGradient id="paint3_radial_9_29" cx="0" cy="0" r="1" gradientUnits="userSpaceOnUse" gradientTransform="translate(584 122) scale(21)">
<stop offset="0.62178" stop-color="#00FF0A"/>
<stop offset="1" stop-color="#567057" stop-opacity="0.43"/>
</radialGradient>
<radialGradient id="paint4_radial_9_29" cx="0" cy="0" r="1" gradientUnits="userSpaceOnUse" gradientTransform="translate(350 80) rotate(90) scale(80 350)">
<stop offset="0.775" stop-color="#00FF0A" stop-opacity="0.47"/>
<stop offset="1" stop-color="#567057" stop-opacity="0.43"/>
</radialGradient>
<radialGradient id="paint5_radial_9_29" cx="0" cy="0" r="1" gradientUnits="userSpaceOnUse" gradientTransform="translate(584 122) scale(21)">
<stop offset="0.62178" stop-color="#00FF0A"/>
<stop offset="1" stop-color="#567057" stop-opacity="0.43"/>
</radialGradient>
</defs>
</svg>
