<svg width="700" height="160" viewBox="0 0 700 160" fill="none" xmlns="http://www.w3.org/2000/svg">
<rect width="700" height="160" fill="#1E1E1E"/>
<rect width="700" height="160" fill="#A5D6A7"/>
<path d="M210.195 75.2727H214.638V92.6591C214.63 94.2528 214.292 95.6252 213.624 96.7763C212.955 97.9193 212.022 98.8007 210.822 99.4205C209.631 100.032 208.243 100.338 206.657 100.338C205.208 100.338 203.904 100.08 202.745 99.5653C201.594 99.0421 200.68 98.2694 200.004 97.2472C199.328 96.2249 198.99 94.9531 198.99 93.4318H203.445C203.453 94.0999 203.598 94.6754 203.88 95.1584C204.17 95.6413 204.568 96.0116 205.075 96.2692C205.582 96.5268 206.166 96.6555 206.826 96.6555C207.542 96.6555 208.15 96.5066 208.649 96.2088C209.148 95.9029 209.527 95.4522 209.784 94.8565C210.05 94.2609 210.187 93.5284 210.195 92.6591V75.2727ZM227.394 100.362C225.583 100.362 224.013 99.9638 222.685 99.1669C221.357 98.37 220.327 97.2552 219.594 95.8224C218.87 94.3897 218.507 92.7154 218.507 90.7997C218.507 88.884 218.87 87.2057 219.594 85.7649C220.327 84.3241 221.357 83.2053 222.685 82.4084C224.013 81.6115 225.583 81.2131 227.394 81.2131C229.205 81.2131 230.775 81.6115 232.103 82.4084C233.431 83.2053 234.457 84.3241 235.181 85.7649C235.914 87.2057 236.28 88.884 236.28 90.7997C236.28 92.7154 235.914 94.3897 235.181 95.8224C234.457 97.2552 233.431 98.37 232.103 99.1669C230.775 99.9638 229.205 100.362 227.394 100.362ZM227.418 96.8608C228.4 96.8608 229.221 96.5911 229.881 96.0518C230.541 95.5045 231.032 94.772 231.354 93.8544C231.684 92.9368 231.849 91.9145 231.849 90.7876C231.849 89.6527 231.684 88.6264 231.354 87.7088C231.032 86.7831 230.541 86.0466 229.881 85.4993C229.221 84.9519 228.4 84.6783 227.418 84.6783C226.412 84.6783 225.575 84.9519 224.907 85.4993C224.247 86.0466 223.752 86.7831 223.422 87.7088C223.1 88.6264 222.939 89.6527 222.939 90.7876C222.939 91.9145 223.1 92.9368 223.422 93.8544C223.752 94.772 224.247 95.5045 224.907 96.0518C225.575 96.5911 226.412 96.8608 227.418 96.8608ZM239.99 100V81.4545H244.361V100H239.99ZM242.187 78.8224C241.495 78.8224 240.899 78.593 240.4 78.1342C239.901 77.6674 239.652 77.108 239.652 76.456C239.652 75.7959 239.901 75.2365 240.4 74.7777C240.899 74.3108 241.495 74.0774 242.187 74.0774C242.888 74.0774 243.483 74.3108 243.974 74.7777C244.473 75.2365 244.723 75.7959 244.723 76.456C244.723 77.108 244.473 77.6674 243.974 78.1342C243.483 78.593 242.888 78.8224 242.187 78.8224ZM253.226 89.1335V100H248.855V81.4545H253.033V84.6058H253.25C253.677 83.5675 254.357 82.7424 255.29 82.1307C256.232 81.5189 257.395 81.2131 258.78 81.2131C260.06 81.2131 261.174 81.4867 262.124 82.0341C263.082 82.5814 263.823 83.3743 264.346 84.4126C264.877 85.451 265.139 86.7107 265.131 88.1918V100H260.76V88.8679C260.76 87.6283 260.438 86.6584 259.794 85.9581C259.158 85.2578 258.277 84.9077 257.15 84.9077C256.385 84.9077 255.705 85.0767 255.109 85.4148C254.522 85.7448 254.059 86.2237 253.721 86.8516C253.391 87.4794 253.226 88.2401 253.226 89.1335ZM286.58 100H278.201V75.2727H286.749C289.204 75.2727 291.313 75.7678 293.076 76.7578C294.846 77.7398 296.207 79.1525 297.157 80.9957C298.106 82.839 298.581 85.0445 298.581 87.6122C298.581 90.188 298.102 92.4015 297.145 94.2528C296.195 96.1042 294.822 97.5249 293.027 98.5149C291.24 99.505 289.091 100 286.58 100ZM282.68 96.1243H286.363C288.085 96.1243 289.522 95.8104 290.673 95.1825C291.824 94.5466 292.689 93.6009 293.269 92.3452C293.848 91.0814 294.138 89.5038 294.138 87.6122C294.138 85.7206 293.848 84.151 293.269 82.9034C292.689 81.6477 291.832 80.71 290.697 80.0902C289.57 79.4624 288.17 79.1484 286.495 79.1484H282.68V96.1243ZM302.644 100V81.4545H307.015V100H302.644ZM304.842 78.8224C304.149 78.8224 303.554 78.593 303.055 78.1342C302.556 77.6674 302.306 77.108 302.306 76.456C302.306 75.7959 302.556 75.2365 303.055 74.7777C303.554 74.3108 304.149 74.0774 304.842 74.0774C305.542 74.0774 306.138 74.3108 306.629 74.7777C307.128 75.2365 307.377 75.7959 307.377 76.456C307.377 77.108 307.128 77.6674 306.629 78.1342C306.138 78.593 305.542 78.8224 304.842 78.8224ZM326.167 86.3565L322.183 86.7912C322.07 86.3887 321.873 86.0104 321.591 85.6562C321.317 85.3021 320.947 85.0163 320.48 84.799C320.013 84.5817 319.442 84.473 318.766 84.473C317.856 84.473 317.092 84.6702 316.472 85.0646C315.86 85.459 315.558 85.9702 315.566 86.598C315.558 87.1373 315.755 87.576 316.158 87.9141C316.568 88.2521 317.244 88.5298 318.186 88.7472L321.35 89.4233C323.104 89.8016 324.408 90.4013 325.262 91.2223C326.123 92.0433 326.557 93.1179 326.566 94.446C326.557 95.6132 326.215 96.6435 325.539 97.5369C324.871 98.4223 323.941 99.1146 322.75 99.6136C321.559 100.113 320.191 100.362 318.645 100.362C316.375 100.362 314.548 99.8873 313.164 98.9375C311.779 97.9796 310.954 96.6475 310.688 94.9411L314.95 94.5305C315.144 95.3677 315.554 95.9995 316.182 96.4261C316.81 96.8527 317.627 97.0661 318.633 97.0661C319.671 97.0661 320.504 96.8527 321.132 96.4261C321.768 95.9995 322.086 95.4723 322.086 94.8445C322.086 94.3132 321.881 93.8745 321.47 93.5284C321.068 93.1823 320.44 92.9167 319.587 92.7315L316.423 92.0675C314.645 91.6972 313.329 91.0734 312.475 90.196C311.622 89.3106 311.2 88.1918 311.208 86.8395C311.2 85.6965 311.509 84.7064 312.137 83.8693C312.773 83.0241 313.655 82.3722 314.781 81.9134C315.916 81.4465 317.224 81.2131 318.705 81.2131C320.879 81.2131 322.589 81.6759 323.837 82.6016C325.093 83.5272 325.869 84.7789 326.167 86.3565ZM338.259 100.362C336.408 100.362 334.818 99.9557 333.49 99.1428C332.17 98.3298 331.152 97.2069 330.435 95.7741C329.727 94.3333 329.373 92.6752 329.373 90.7997C329.373 88.9162 329.735 87.254 330.459 85.8132C331.184 84.3643 332.206 83.2375 333.526 82.4325C334.854 81.6196 336.424 81.2131 338.235 81.2131C339.74 81.2131 341.072 81.4908 342.231 82.0462C343.398 82.5935 344.328 83.3703 345.02 84.3764C345.713 85.3745 346.107 86.5417 346.204 87.8778H342.026C341.857 86.9844 341.455 86.2398 340.819 85.6442C340.191 85.0405 339.35 84.7386 338.295 84.7386C337.402 84.7386 336.617 84.9801 335.941 85.4631C335.265 85.938 334.738 86.6222 334.359 87.5156C333.989 88.4091 333.804 89.4796 333.804 90.7273C333.804 91.991 333.989 93.0777 334.359 93.9872C334.729 94.8887 335.249 95.585 335.917 96.076C336.593 96.5589 337.386 96.8004 338.295 96.8004C338.939 96.8004 339.515 96.6797 340.022 96.4382C340.537 96.1887 340.968 95.8305 341.314 95.3636C341.66 94.8968 341.897 94.3293 342.026 93.6612H346.204C346.099 94.9732 345.713 96.1364 345.045 97.1506C344.376 98.1567 343.467 98.9455 342.316 99.517C341.165 100.08 339.813 100.362 338.259 100.362ZM357.882 100.362C356.071 100.362 354.501 99.9638 353.173 99.1669C351.845 98.37 350.815 97.2552 350.082 95.8224C349.358 94.3897 348.996 92.7154 348.996 90.7997C348.996 88.884 349.358 87.2057 350.082 85.7649C350.815 84.3241 351.845 83.2053 353.173 82.4084C354.501 81.6115 356.071 81.2131 357.882 81.2131C359.693 81.2131 361.263 81.6115 362.591 82.4084C363.919 83.2053 364.945 84.3241 365.67 85.7649C366.402 87.2057 366.768 88.884 366.768 90.7997C366.768 92.7154 366.402 94.3897 365.67 95.8224C364.945 97.2552 363.919 98.37 362.591 99.1669C361.263 99.9638 359.693 100.362 357.882 100.362ZM357.906 96.8608C358.888 96.8608 359.709 96.5911 360.369 96.0518C361.029 95.5045 361.52 94.772 361.842 93.8544C362.172 92.9368 362.337 91.9145 362.337 90.7876C362.337 89.6527 362.172 88.6264 361.842 87.7088C361.52 86.7831 361.029 86.0466 360.369 85.4993C359.709 84.9519 358.888 84.6783 357.906 84.6783C356.9 84.6783 356.063 84.9519 355.395 85.4993C354.735 86.0466 354.24 86.7831 353.91 87.7088C353.588 88.6264 353.427 89.6527 353.427 90.7876C353.427 91.9145 353.588 92.9368 353.91 93.8544C354.24 94.772 354.735 95.5045 355.395 96.0518C356.063 96.5911 356.9 96.8608 357.906 96.8608ZM370.478 100V81.4545H374.716V84.5455H374.909C375.247 83.4749 375.827 82.6499 376.648 82.0703C377.477 81.4827 378.423 81.1889 379.485 81.1889C379.727 81.1889 379.996 81.201 380.294 81.2251C380.6 81.2412 380.854 81.2694 381.055 81.3097V85.3303C380.87 85.2659 380.576 85.2095 380.173 85.1612C379.779 85.1049 379.397 85.0767 379.026 85.0767C378.23 85.0767 377.513 85.2498 376.877 85.5959C376.249 85.9339 375.754 86.4048 375.392 87.0085C375.03 87.6122 374.849 88.3085 374.849 89.0973V100H370.478ZM390.077 100.326C388.62 100.326 387.316 99.9517 386.165 99.2031C385.014 98.4545 384.105 97.3679 383.436 95.9432C382.768 94.5185 382.434 92.7879 382.434 90.7514C382.434 88.6908 382.772 86.9522 383.449 85.5355C384.133 84.1108 385.054 83.0362 386.213 82.3118C387.373 81.5793 388.664 81.2131 390.089 81.2131C391.176 81.2131 392.069 81.3982 392.77 81.7685C393.47 82.1307 394.025 82.5694 394.436 83.0845C394.846 83.5916 395.164 84.0705 395.39 84.5213H395.571V75.2727H399.953V100H395.655V97.0781H395.39C395.164 97.5289 394.838 98.0078 394.412 98.5149C393.985 99.014 393.422 99.4406 392.721 99.7947C392.021 100.149 391.14 100.326 390.077 100.326ZM391.297 96.7401C392.222 96.7401 393.011 96.4905 393.663 95.9915C394.315 95.4844 394.81 94.7801 395.148 93.8786C395.486 92.977 395.655 91.9266 395.655 90.7273C395.655 89.5279 395.486 88.4856 395.148 87.6001C394.818 86.7147 394.327 86.0265 393.675 85.5355C393.031 85.0445 392.238 84.799 391.297 84.799C390.323 84.799 389.51 85.0526 388.858 85.5597C388.206 86.0668 387.715 86.767 387.385 87.6605C387.055 88.554 386.89 89.5762 386.89 90.7273C386.89 91.8864 387.055 92.9207 387.385 93.8303C387.723 94.7318 388.218 95.4441 388.87 95.9673C389.53 96.4825 390.339 96.7401 391.297 96.7401ZM426.676 82.0703C426.563 81.0159 426.088 80.1948 425.251 79.6072C424.422 79.0196 423.344 78.7259 422.015 78.7259C421.082 78.7259 420.281 78.8667 419.613 79.1484C418.945 79.4302 418.434 79.8125 418.079 80.2955C417.725 80.7784 417.544 81.3298 417.536 81.9496C417.536 82.4647 417.653 82.9115 417.886 83.2898C418.128 83.6681 418.454 83.9901 418.864 84.2557C419.275 84.5133 419.729 84.7306 420.229 84.9077C420.728 85.0848 421.231 85.2337 421.738 85.3544L424.056 85.9339C424.99 86.1513 425.887 86.4451 426.748 86.8153C427.618 87.1856 428.394 87.6525 429.079 88.2159C429.771 88.7794 430.318 89.4595 430.721 90.2564C431.123 91.0533 431.324 91.987 431.324 93.0575C431.324 94.5064 430.954 95.7822 430.214 96.8849C429.473 97.9796 428.403 98.8369 427.002 99.4567C425.609 100.068 423.923 100.374 421.943 100.374C420.019 100.374 418.349 100.076 416.932 99.4808C415.524 98.8852 414.421 98.0159 413.624 96.8729C412.835 95.7299 412.409 94.3374 412.344 92.6953H416.751C416.816 93.5566 417.081 94.273 417.548 94.8445C418.015 95.416 418.623 95.8426 419.371 96.1243C420.128 96.406 420.973 96.5469 421.907 96.5469C422.881 96.5469 423.734 96.402 424.466 96.1122C425.207 95.8144 425.787 95.4039 426.205 94.8807C426.624 94.3494 426.837 93.7296 426.845 93.0213C426.837 92.3774 426.648 91.8461 426.278 91.4276C425.907 91.0009 425.388 90.6468 424.72 90.3651C424.06 90.0753 423.287 89.8177 422.402 89.5923L419.589 88.8679C417.552 88.3447 415.942 87.5518 414.759 86.4893C413.584 85.4188 412.996 83.9981 412.996 82.2273C412.996 80.7704 413.391 79.4946 414.18 78.3999C414.976 77.3052 416.059 76.456 417.427 75.8523C418.796 75.2405 420.345 74.9347 422.076 74.9347C423.831 74.9347 425.368 75.2405 426.688 75.8523C428.016 76.456 429.059 77.2971 429.815 78.3757C430.572 79.4463 430.962 80.6778 430.986 82.0703H426.676ZM443.335 100.362C441.475 100.362 439.87 99.9759 438.517 99.2031C437.173 98.4223 436.139 97.3196 435.414 95.8949C434.69 94.4621 434.328 92.7758 434.328 90.8359C434.328 88.9283 434.69 87.254 435.414 85.8132C436.147 84.3643 437.169 83.2375 438.481 82.4325C439.793 81.6196 441.335 81.2131 443.105 81.2131C444.248 81.2131 445.327 81.3982 446.341 81.7685C447.364 82.1307 448.265 82.6941 449.046 83.4588C449.835 84.2235 450.454 85.1974 450.905 86.3807C451.356 87.5559 451.581 88.9564 451.581 90.5824V91.9226H436.38V88.9766H447.392C447.384 88.1394 447.203 87.3949 446.848 86.7429C446.494 86.0829 445.999 85.5637 445.363 85.1854C444.735 84.8071 444.003 84.6179 443.166 84.6179C442.272 84.6179 441.488 84.8352 440.811 85.2699C440.135 85.6965 439.608 86.2599 439.23 86.9602C438.859 87.6525 438.67 88.4131 438.662 89.2422V91.8139C438.662 92.8925 438.859 93.8182 439.254 94.5909C439.648 95.3556 440.2 95.9432 440.908 96.3537C441.616 96.7562 442.445 96.9574 443.395 96.9574C444.031 96.9574 444.607 96.8688 445.122 96.6918C445.637 96.5066 446.084 96.237 446.462 95.8828C446.84 95.5286 447.126 95.09 447.319 94.5668L451.4 95.0256C451.143 96.1042 450.652 97.0459 449.927 97.8509C449.211 98.6477 448.293 99.2675 447.174 99.7102C446.056 100.145 444.776 100.362 443.335 100.362ZM455.279 100V81.4545H459.517V84.5455H459.71C460.048 83.4749 460.628 82.6499 461.449 82.0703C462.278 81.4827 463.224 81.1889 464.286 81.1889C464.528 81.1889 464.797 81.201 465.095 81.2251C465.401 81.2412 465.654 81.2694 465.856 81.3097V85.3303C465.671 85.2659 465.377 85.2095 464.974 85.1612C464.58 85.1049 464.198 85.0767 463.827 85.0767C463.03 85.0767 462.314 85.2498 461.678 85.5959C461.05 85.9339 460.555 86.4048 460.193 87.0085C459.831 87.6122 459.65 88.3085 459.65 89.0973V100H455.279ZM485.889 81.4545L479.285 100H474.455L467.851 81.4545H472.511L476.773 95.2308H476.967L481.241 81.4545H485.889ZM496.493 100.362C494.634 100.362 493.028 99.9759 491.676 99.2031C490.331 98.4223 489.297 97.3196 488.573 95.8949C487.848 94.4621 487.486 92.7758 487.486 90.8359C487.486 88.9283 487.848 87.254 488.573 85.8132C489.305 84.3643 490.327 83.2375 491.639 82.4325C492.951 81.6196 494.493 81.2131 496.264 81.2131C497.407 81.2131 498.485 81.3982 499.499 81.7685C500.522 82.1307 501.423 82.6941 502.204 83.4588C502.993 84.2235 503.613 85.1974 504.063 86.3807C504.514 87.5559 504.74 88.9564 504.74 90.5824V91.9226H489.539V88.9766H500.55C500.542 88.1394 500.361 87.3949 500.007 86.7429C499.652 86.0829 499.157 85.5637 498.521 85.1854C497.894 84.8071 497.161 84.6179 496.324 84.6179C495.431 84.6179 494.646 84.8352 493.97 85.2699C493.294 85.6965 492.766 86.2599 492.388 86.9602C492.018 87.6525 491.829 88.4131 491.82 89.2422V91.8139C491.82 92.8925 492.018 93.8182 492.412 94.5909C492.807 95.3556 493.358 95.9432 494.066 96.3537C494.775 96.7562 495.604 96.9574 496.553 96.9574C497.189 96.9574 497.765 96.8688 498.28 96.6918C498.795 96.5066 499.242 96.237 499.62 95.8828C499.999 95.5286 500.284 95.09 500.477 94.5668L504.558 95.0256C504.301 96.1042 503.81 97.0459 503.085 97.8509C502.369 98.6477 501.451 99.2675 500.333 99.7102C499.214 100.145 497.934 100.362 496.493 100.362ZM508.437 100V81.4545H512.675V84.5455H512.868C513.206 83.4749 513.786 82.6499 514.607 82.0703C515.436 81.4827 516.382 81.1889 517.444 81.1889C517.686 81.1889 517.955 81.201 518.253 81.2251C518.559 81.2412 518.813 81.2694 519.014 81.3097V85.3303C518.829 85.2659 518.535 85.2095 518.132 85.1612C517.738 85.1049 517.356 85.0767 516.985 85.0767C516.189 85.0767 515.472 85.2498 514.836 85.5959C514.208 85.9339 513.713 86.4048 513.351 87.0085C512.989 87.6122 512.808 88.3085 512.808 89.0973V100H508.437Z" fill="#1B5E20"/>
<ellipse cx="332" cy="43.5" rx="20" ry="19.5" fill="#388E3C"/>
<ellipse cx="429" cy="43.5" rx="20" ry="19.5" fill="#66BB6A"/>
<path d="M279 24L298.053 60.75H259.947L279 24Z" fill="#1B5E20"/>
<rect x="363" y="24" width="36" height="36" fill="#4CAF50"/>
<path d="M268.594 118.575C268.505 118.287 268.383 118.029 268.227 117.802C268.074 117.571 267.889 117.374 267.673 117.211C267.46 117.048 267.215 116.925 266.938 116.843C266.661 116.758 266.359 116.716 266.032 116.716C265.446 116.716 264.924 116.863 264.466 117.158C264.008 117.452 263.647 117.886 263.385 118.457C263.125 119.026 262.996 119.718 262.996 120.535C262.996 121.359 263.125 122.056 263.385 122.628C263.644 123.2 264.004 123.635 264.466 123.933C264.928 124.228 265.464 124.375 266.075 124.375C266.629 124.375 267.108 124.269 267.513 124.056C267.921 123.843 268.236 123.541 268.456 123.15C268.676 122.756 268.786 122.294 268.786 121.765L269.233 121.835H266.272V120.29H270.698V121.6C270.698 122.534 270.499 123.342 270.102 124.024C269.704 124.706 269.157 125.231 268.461 125.6C267.765 125.966 266.966 126.149 266.064 126.149C265.059 126.149 264.177 125.924 263.417 125.473C262.66 125.018 262.069 124.374 261.643 123.539C261.22 122.701 261.009 121.707 261.009 120.556C261.009 119.675 261.133 118.889 261.382 118.196C261.634 117.504 261.986 116.916 262.437 116.433C262.888 115.947 263.417 115.577 264.024 115.325C264.631 115.07 265.292 114.942 266.005 114.942C266.609 114.942 267.172 115.031 267.694 115.208C268.216 115.382 268.679 115.631 269.084 115.954C269.493 116.277 269.828 116.661 270.091 117.104C270.354 117.548 270.526 118.038 270.608 118.575H268.594ZM276.146 126.16C275.326 126.16 274.617 125.989 274.021 125.648C273.428 125.304 272.971 124.817 272.652 124.189C272.332 123.557 272.172 122.813 272.172 121.957C272.172 121.115 272.332 120.377 272.652 119.741C272.975 119.102 273.426 118.605 274.005 118.25C274.584 117.891 275.264 117.712 276.045 117.712C276.549 117.712 277.025 117.793 277.472 117.957C277.923 118.116 278.321 118.365 278.666 118.702C279.014 119.04 279.287 119.469 279.486 119.991C279.685 120.51 279.784 121.128 279.784 121.845V122.436H273.078V121.137H277.936C277.932 120.767 277.852 120.439 277.696 120.151C277.54 119.86 277.322 119.631 277.041 119.464C276.764 119.297 276.441 119.214 276.072 119.214C275.677 119.214 275.331 119.31 275.033 119.501C274.735 119.69 274.502 119.938 274.335 120.247C274.172 120.553 274.088 120.888 274.085 121.254V122.388C274.085 122.864 274.172 123.273 274.346 123.614C274.52 123.951 274.763 124.21 275.075 124.391C275.388 124.569 275.754 124.658 276.173 124.658C276.453 124.658 276.707 124.619 276.934 124.54C277.162 124.459 277.359 124.34 277.526 124.184C277.693 124.027 277.819 123.834 277.904 123.603L279.704 123.805C279.591 124.281 279.374 124.697 279.055 125.052C278.738 125.403 278.334 125.677 277.84 125.872C277.346 126.064 276.782 126.16 276.146 126.16ZM285.501 117.818V119.31H280.798V117.818H285.501ZM281.959 115.858H283.887V123.539C283.887 123.798 283.926 123.997 284.004 124.136C284.086 124.271 284.193 124.363 284.324 124.413C284.455 124.462 284.601 124.487 284.761 124.487C284.881 124.487 284.992 124.478 285.091 124.461C285.194 124.443 285.272 124.427 285.325 124.413L285.65 125.92C285.547 125.956 285.4 125.995 285.208 126.037C285.02 126.08 284.789 126.105 284.516 126.112C284.033 126.126 283.598 126.053 283.211 125.893C282.824 125.73 282.516 125.478 282.289 125.137C282.065 124.796 281.955 124.37 281.959 123.859V115.858ZM292.321 126H290.211L294.052 115.091H296.491L300.337 126H298.228L295.314 117.328H295.229L292.321 126ZM292.39 121.723H298.143V123.31H292.39V121.723ZM305.009 126.16C304.192 126.16 303.491 125.98 302.905 125.622C302.322 125.263 301.873 124.768 301.557 124.136C301.245 123.5 301.088 122.768 301.088 121.941C301.088 121.11 301.248 120.377 301.568 119.741C301.887 119.102 302.338 118.605 302.921 118.25C303.507 117.891 304.199 117.712 304.998 117.712C305.662 117.712 306.25 117.834 306.761 118.079C307.276 118.321 307.686 118.663 307.992 119.107C308.297 119.548 308.471 120.062 308.514 120.652H306.671C306.596 120.258 306.419 119.929 306.138 119.667C305.861 119.4 305.49 119.267 305.025 119.267C304.631 119.267 304.284 119.374 303.986 119.587C303.688 119.796 303.455 120.098 303.288 120.492C303.125 120.886 303.043 121.359 303.043 121.909C303.043 122.467 303.125 122.946 303.288 123.347C303.452 123.745 303.681 124.052 303.975 124.269C304.274 124.482 304.624 124.588 305.025 124.588C305.309 124.588 305.563 124.535 305.787 124.429C306.014 124.319 306.204 124.161 306.357 123.955C306.509 123.749 306.614 123.498 306.671 123.203H308.514C308.468 123.782 308.297 124.295 308.002 124.743C307.708 125.187 307.306 125.535 306.799 125.787C306.291 126.036 305.694 126.16 305.009 126.16ZM313.666 126.16C312.849 126.16 312.148 125.98 311.562 125.622C310.98 125.263 310.53 124.768 310.214 124.136C309.902 123.5 309.746 122.768 309.746 121.941C309.746 121.11 309.905 120.377 310.225 119.741C310.545 119.102 310.996 118.605 311.578 118.25C312.164 117.891 312.856 117.712 313.655 117.712C314.32 117.712 314.907 117.834 315.419 118.079C315.934 118.321 316.344 118.663 316.649 119.107C316.954 119.548 317.128 120.062 317.171 120.652H315.328C315.253 120.258 315.076 119.929 314.795 119.667C314.518 119.4 314.147 119.267 313.682 119.267C313.288 119.267 312.942 119.374 312.643 119.587C312.345 119.796 312.112 120.098 311.946 120.492C311.782 120.886 311.701 121.359 311.701 121.909C311.701 122.467 311.782 122.946 311.946 123.347C312.109 123.745 312.338 124.052 312.633 124.269C312.931 124.482 313.281 124.588 313.682 124.588C313.966 124.588 314.22 124.535 314.444 124.429C314.671 124.319 314.861 124.161 315.014 123.955C315.166 123.749 315.271 123.498 315.328 123.203H317.171C317.125 123.782 316.954 124.295 316.66 124.743C316.365 125.187 315.964 125.535 315.456 125.787C314.948 126.036 314.351 126.16 313.666 126.16ZM322.377 126.16C321.556 126.16 320.848 125.989 320.251 125.648C319.658 125.304 319.202 124.817 318.882 124.189C318.563 123.557 318.403 122.813 318.403 121.957C318.403 121.115 318.563 120.377 318.882 119.741C319.205 119.102 319.656 118.605 320.235 118.25C320.814 117.891 321.494 117.712 322.275 117.712C322.78 117.712 323.256 117.793 323.703 117.957C324.154 118.116 324.552 118.365 324.896 118.702C325.244 119.04 325.518 119.469 325.716 119.991C325.915 120.51 326.015 121.128 326.015 121.845V122.436H319.308V121.137H324.166C324.163 120.767 324.083 120.439 323.927 120.151C323.77 119.86 323.552 119.631 323.271 119.464C322.994 119.297 322.671 119.214 322.302 119.214C321.908 119.214 321.562 119.31 321.263 119.501C320.965 119.69 320.732 119.938 320.566 120.247C320.402 120.553 320.319 120.888 320.315 121.254V122.388C320.315 122.864 320.402 123.273 320.576 123.614C320.75 123.951 320.993 124.21 321.306 124.391C321.618 124.569 321.984 124.658 322.403 124.658C322.684 124.658 322.938 124.619 323.165 124.54C323.392 124.459 323.589 124.34 323.756 124.184C323.923 124.027 324.049 123.834 324.134 123.603L325.935 123.805C325.821 124.281 325.605 124.697 325.285 125.052C324.969 125.403 324.564 125.677 324.07 125.872C323.577 126.064 323.012 126.16 322.377 126.16ZM334.113 119.981L332.355 120.173C332.305 119.995 332.218 119.828 332.094 119.672C331.973 119.516 331.81 119.39 331.604 119.294C331.398 119.198 331.146 119.15 330.847 119.15C330.446 119.15 330.109 119.237 329.835 119.411C329.565 119.585 329.432 119.81 329.436 120.087C329.432 120.325 329.519 120.519 329.697 120.668C329.878 120.817 330.176 120.94 330.592 121.036L331.987 121.334C332.761 121.501 333.337 121.765 333.713 122.127C334.093 122.49 334.285 122.964 334.288 123.55C334.285 124.065 334.134 124.519 333.836 124.913C333.541 125.304 333.131 125.609 332.605 125.83C332.08 126.05 331.476 126.16 330.794 126.16C329.793 126.16 328.987 125.95 328.376 125.531C327.765 125.109 327.401 124.521 327.284 123.768L329.164 123.587C329.249 123.956 329.43 124.235 329.707 124.423C329.984 124.612 330.345 124.706 330.789 124.706C331.247 124.706 331.614 124.612 331.891 124.423C332.172 124.235 332.312 124.002 332.312 123.725C332.312 123.491 332.222 123.298 332.041 123.145C331.863 122.992 331.586 122.875 331.21 122.793L329.814 122.5C329.029 122.337 328.449 122.062 328.072 121.675C327.696 121.284 327.509 120.79 327.513 120.194C327.509 119.69 327.646 119.253 327.923 118.884C328.204 118.511 328.592 118.223 329.09 118.021C329.59 117.815 330.167 117.712 330.821 117.712C331.78 117.712 332.534 117.916 333.085 118.324C333.639 118.733 333.981 119.285 334.113 119.981ZM342.345 119.981L340.587 120.173C340.538 119.995 340.451 119.828 340.326 119.672C340.206 119.516 340.042 119.39 339.836 119.294C339.63 119.198 339.378 119.15 339.08 119.15C338.679 119.15 338.341 119.237 338.068 119.411C337.798 119.585 337.665 119.81 337.668 120.087C337.665 120.325 337.752 120.519 337.929 120.668C338.11 120.817 338.409 120.94 338.824 121.036L340.22 121.334C340.994 121.501 341.569 121.765 341.946 122.127C342.326 122.49 342.517 122.964 342.521 123.55C342.517 124.065 342.366 124.519 342.068 124.913C341.773 125.304 341.363 125.609 340.838 125.83C340.312 126.05 339.708 126.16 339.027 126.16C338.025 126.16 337.219 125.95 336.608 125.531C335.997 125.109 335.633 124.521 335.516 123.768L337.397 123.587C337.482 123.956 337.663 124.235 337.94 124.423C338.217 124.612 338.577 124.706 339.021 124.706C339.479 124.706 339.847 124.612 340.124 124.423C340.404 124.235 340.545 124.002 340.545 123.725C340.545 123.491 340.454 123.298 340.273 123.145C340.095 122.992 339.818 122.875 339.442 122.793L338.046 122.5C337.262 122.337 336.681 122.062 336.305 121.675C335.928 121.284 335.742 120.79 335.745 120.194C335.742 119.69 335.878 119.253 336.155 118.884C336.436 118.511 336.825 118.223 337.322 118.021C337.823 117.815 338.4 117.712 339.053 117.712C340.012 117.712 340.767 117.916 341.317 118.324C341.871 118.733 342.214 119.285 342.345 119.981ZM351.917 117.818V119.31H347.214V117.818H351.917ZM348.375 115.858H350.303V123.539C350.303 123.798 350.342 123.997 350.42 124.136C350.502 124.271 350.609 124.363 350.74 124.413C350.871 124.462 351.017 124.487 351.177 124.487C351.297 124.487 351.408 124.478 351.507 124.461C351.61 124.443 351.688 124.427 351.741 124.413L352.066 125.92C351.963 125.956 351.816 125.995 351.624 126.037C351.436 126.08 351.205 126.105 350.932 126.112C350.449 126.126 350.014 126.053 349.627 125.893C349.24 125.73 348.932 125.478 348.705 125.137C348.481 124.796 348.371 124.37 348.375 123.859V115.858ZM357.011 126.16C356.212 126.16 355.519 125.984 354.933 125.632C354.347 125.281 353.893 124.789 353.57 124.157C353.25 123.525 353.09 122.786 353.09 121.941C353.09 121.096 353.25 120.355 353.57 119.72C353.893 119.084 354.347 118.591 354.933 118.239C355.519 117.887 356.212 117.712 357.011 117.712C357.81 117.712 358.502 117.887 359.088 118.239C359.674 118.591 360.127 119.084 360.447 119.72C360.77 120.355 360.931 121.096 360.931 121.941C360.931 122.786 360.77 123.525 360.447 124.157C360.127 124.789 359.674 125.281 359.088 125.632C358.502 125.984 357.81 126.16 357.011 126.16ZM357.021 124.615C357.455 124.615 357.817 124.496 358.108 124.258C358.399 124.017 358.616 123.694 358.758 123.289C358.904 122.884 358.976 122.433 358.976 121.936C358.976 121.435 358.904 120.982 358.758 120.577C358.616 120.169 358.399 119.844 358.108 119.603C357.817 119.361 357.455 119.24 357.021 119.24C356.578 119.24 356.208 119.361 355.914 119.603C355.622 119.844 355.404 120.169 355.258 120.577C355.116 120.982 355.045 121.435 355.045 121.936C355.045 122.433 355.116 122.884 355.258 123.289C355.404 123.694 355.622 124.017 355.914 124.258C356.208 124.496 356.578 124.615 357.021 124.615ZM375.339 115.091V126H373.581L368.441 118.569H368.35V126H366.374V115.091H368.142L373.277 122.527H373.373V115.091H375.339ZM381.029 126.16C380.209 126.16 379.5 125.989 378.904 125.648C378.311 125.304 377.854 124.817 377.535 124.189C377.215 123.557 377.055 122.813 377.055 121.957C377.055 121.115 377.215 120.377 377.535 119.741C377.858 119.102 378.309 118.605 378.888 118.25C379.466 117.891 380.146 117.712 380.928 117.712C381.432 117.712 381.908 117.793 382.355 117.957C382.806 118.116 383.204 118.365 383.548 118.702C383.896 119.04 384.17 119.469 384.369 119.991C384.568 120.51 384.667 121.128 384.667 121.845V122.436H377.961V121.137H382.819C382.815 120.767 382.735 120.439 382.579 120.151C382.423 119.86 382.204 119.631 381.924 119.464C381.647 119.297 381.324 119.214 380.954 119.214C380.56 119.214 380.214 119.31 379.916 119.501C379.617 119.69 379.385 119.938 379.218 120.247C379.055 120.553 378.971 120.888 378.968 121.254V122.388C378.968 122.864 379.055 123.273 379.229 123.614C379.403 123.951 379.646 124.21 379.958 124.391C380.271 124.569 380.637 124.658 381.056 124.658C381.336 124.658 381.59 124.619 381.817 124.54C382.045 124.459 382.242 124.34 382.409 124.184C382.575 124.027 382.702 123.834 382.787 123.603L384.587 123.805C384.474 124.281 384.257 124.697 383.937 125.052C383.621 125.403 383.216 125.677 382.723 125.872C382.229 126.064 381.665 126.16 381.029 126.16ZM387.943 126L385.631 117.818H387.597L389.035 123.571H389.11L390.58 117.818H392.524L393.994 123.539H394.074L395.491 117.818H397.462L395.145 126H393.137L391.602 120.471H391.491L389.956 126H387.943ZM402.614 126V115.091H409.603V116.748H404.59V119.709H409.123V121.366H404.59V126H402.614ZM414.339 126.16C413.519 126.16 412.811 125.989 412.214 125.648C411.621 125.304 411.165 124.817 410.845 124.189C410.526 123.557 410.366 122.813 410.366 121.957C410.366 121.115 410.526 120.377 410.845 119.741C411.168 119.102 411.619 118.605 412.198 118.25C412.777 117.891 413.457 117.712 414.238 117.712C414.743 117.712 415.218 117.793 415.666 117.957C416.117 118.116 416.515 118.365 416.859 118.702C417.207 119.04 417.48 119.469 417.679 119.991C417.878 120.51 417.978 121.128 417.978 121.845V122.436H411.271V121.137H416.129C416.126 120.767 416.046 120.439 415.89 120.151C415.733 119.86 415.515 119.631 415.234 119.464C414.957 119.297 414.634 119.214 414.265 119.214C413.871 119.214 413.525 119.31 413.226 119.501C412.928 119.69 412.695 119.938 412.528 120.247C412.365 120.553 412.282 120.888 412.278 121.254V122.388C412.278 122.864 412.365 123.273 412.539 123.614C412.713 123.951 412.956 124.21 413.269 124.391C413.581 124.569 413.947 124.658 414.366 124.658C414.647 124.658 414.901 124.619 415.128 124.54C415.355 124.459 415.552 124.34 415.719 124.184C415.886 124.027 416.012 123.834 416.097 123.603L417.898 123.805C417.784 124.281 417.567 124.697 417.248 125.052C416.932 125.403 416.527 125.677 416.033 125.872C415.54 126.064 414.975 126.16 414.339 126.16ZM421.963 126.165C421.445 126.165 420.978 126.073 420.562 125.888C420.15 125.7 419.824 125.423 419.582 125.057C419.344 124.691 419.225 124.24 419.225 123.704C419.225 123.243 419.311 122.861 419.481 122.559C419.652 122.257 419.884 122.016 420.179 121.835C420.474 121.653 420.806 121.517 421.175 121.424C421.548 121.328 421.933 121.259 422.331 121.217C422.81 121.167 423.199 121.123 423.497 121.083C423.796 121.041 424.012 120.977 424.147 120.892C424.286 120.803 424.355 120.666 424.355 120.482V120.45C424.355 120.048 424.236 119.738 423.998 119.517C423.76 119.297 423.418 119.187 422.97 119.187C422.498 119.187 422.123 119.29 421.846 119.496C421.573 119.702 421.388 119.945 421.292 120.226L419.492 119.97C419.634 119.473 419.868 119.058 420.195 118.724C420.522 118.386 420.921 118.134 421.393 117.967C421.866 117.797 422.388 117.712 422.959 117.712C423.354 117.712 423.746 117.758 424.137 117.85C424.527 117.942 424.884 118.095 425.207 118.308C425.53 118.518 425.79 118.804 425.985 119.166C426.184 119.528 426.283 119.981 426.283 120.524V126H424.43V124.876H424.366C424.248 125.103 424.083 125.316 423.87 125.515C423.661 125.711 423.396 125.869 423.077 125.989C422.761 126.107 422.389 126.165 421.963 126.165ZM422.464 124.748C422.851 124.748 423.187 124.672 423.471 124.519C423.755 124.363 423.973 124.157 424.126 123.901C424.282 123.646 424.36 123.367 424.36 123.065V122.101C424.3 122.151 424.197 122.197 424.051 122.239C423.909 122.282 423.75 122.319 423.572 122.351C423.394 122.383 423.219 122.412 423.045 122.436C422.871 122.461 422.72 122.483 422.592 122.5C422.304 122.539 422.047 122.603 421.82 122.692C421.592 122.781 421.413 122.905 421.282 123.065C421.15 123.221 421.084 123.424 421.084 123.672C421.084 124.027 421.214 124.295 421.473 124.477C421.733 124.658 422.063 124.748 422.464 124.748ZM432.308 117.818V119.31H427.604V117.818H432.308ZM428.766 115.858H430.694V123.539C430.694 123.798 430.733 123.997 430.811 124.136C430.893 124.271 430.999 124.363 431.131 124.413C431.262 124.462 431.408 124.487 431.567 124.487C431.688 124.487 431.798 124.478 431.898 124.461C432.001 124.443 432.079 124.427 432.132 124.413L432.457 125.92C432.354 125.956 432.207 125.995 432.015 126.037C431.827 126.08 431.596 126.105 431.322 126.112C430.839 126.126 430.404 126.053 430.017 125.893C429.63 125.73 429.323 125.478 429.096 125.137C428.872 124.796 428.762 124.37 428.766 123.859V115.858ZM439.135 122.559V117.818H441.064V126H439.194V124.546H439.109C438.924 125.004 438.62 125.379 438.198 125.67C437.779 125.961 437.262 126.107 436.648 126.107C436.112 126.107 435.637 125.988 435.225 125.75C434.817 125.508 434.498 125.158 434.267 124.7C434.036 124.239 433.92 123.681 433.92 123.028V117.818H435.849V122.729C435.849 123.248 435.991 123.66 436.275 123.965C436.559 124.271 436.932 124.423 437.393 124.423C437.678 124.423 437.953 124.354 438.219 124.216C438.485 124.077 438.704 123.871 438.874 123.598C439.048 123.321 439.135 122.974 439.135 122.559ZM443.046 126V117.818H444.916V119.182H445.001C445.15 118.71 445.406 118.346 445.768 118.09C446.134 117.831 446.551 117.701 447.02 117.701C447.127 117.701 447.246 117.706 447.377 117.717C447.512 117.724 447.624 117.737 447.713 117.754V119.528C447.631 119.5 447.501 119.475 447.324 119.453C447.15 119.429 446.981 119.416 446.818 119.416C446.466 119.416 446.15 119.493 445.87 119.645C445.593 119.794 445.374 120.002 445.214 120.268C445.055 120.535 444.975 120.842 444.975 121.19V126H443.046ZM452.279 126.16C451.459 126.16 450.75 125.989 450.154 125.648C449.561 125.304 449.104 124.817 448.785 124.189C448.465 123.557 448.305 122.813 448.305 121.957C448.305 121.115 448.465 120.377 448.785 119.741C449.108 119.102 449.559 118.605 450.138 118.25C450.716 117.891 451.396 117.712 452.178 117.712C452.682 117.712 453.158 117.793 453.605 117.957C454.056 118.116 454.454 118.365 454.798 118.702C455.146 119.04 455.42 119.469 455.619 119.991C455.818 120.51 455.917 121.128 455.917 121.845V122.436H449.211V121.137H454.069C454.065 120.767 453.985 120.439 453.829 120.151C453.673 119.86 453.454 119.631 453.174 119.464C452.897 119.297 452.574 119.214 452.204 119.214C451.81 119.214 451.464 119.31 451.166 119.501C450.867 119.69 450.635 119.938 450.468 120.247C450.305 120.553 450.221 120.888 450.218 121.254V122.388C450.218 122.864 450.305 123.273 450.479 123.614C450.653 123.951 450.896 124.21 451.208 124.391C451.521 124.569 451.887 124.658 452.306 124.658C452.586 124.658 452.84 124.619 453.067 124.54C453.295 124.459 453.492 124.34 453.659 124.184C453.825 124.027 453.952 123.834 454.037 123.603L455.837 123.805C455.724 124.281 455.507 124.697 455.187 125.052C454.871 125.403 454.466 125.677 453.973 125.872C453.479 126.064 452.915 126.16 452.279 126.16ZM464.015 119.981L462.257 120.173C462.207 119.995 462.12 119.828 461.996 119.672C461.875 119.516 461.712 119.39 461.506 119.294C461.3 119.198 461.048 119.15 460.75 119.15C460.348 119.15 460.011 119.237 459.738 119.411C459.468 119.585 459.335 119.81 459.338 120.087C459.335 120.325 459.422 120.519 459.599 120.668C459.78 120.817 460.079 120.94 460.494 121.036L461.89 121.334C462.664 121.501 463.239 121.765 463.616 122.127C463.995 122.49 464.187 122.964 464.191 123.55C464.187 124.065 464.036 124.519 463.738 124.913C463.443 125.304 463.033 125.609 462.508 125.83C461.982 126.05 461.378 126.16 460.696 126.16C459.695 126.16 458.889 125.95 458.278 125.531C457.667 125.109 457.303 124.521 457.186 123.768L459.066 123.587C459.152 123.956 459.333 124.235 459.61 124.423C459.887 124.612 460.247 124.706 460.691 124.706C461.149 124.706 461.517 124.612 461.794 124.423C462.074 124.235 462.215 124.002 462.215 123.725C462.215 123.491 462.124 123.298 461.943 123.145C461.765 122.992 461.488 122.875 461.112 122.793L459.716 122.5C458.932 122.337 458.351 122.062 457.975 121.675C457.598 121.284 457.412 120.79 457.415 120.194C457.412 119.69 457.548 119.253 457.825 118.884C458.106 118.511 458.495 118.223 458.992 118.021C459.493 117.815 460.07 117.712 460.723 117.712C461.682 117.712 462.437 117.916 462.987 118.324C463.541 118.733 463.884 119.285 464.015 119.981ZM284.562 144V133.091H288.738C289.527 133.091 290.182 133.215 290.704 133.464C291.23 133.709 291.622 134.044 291.881 134.471C292.144 134.897 292.275 135.38 292.275 135.919C292.275 136.363 292.19 136.743 292.02 137.059C291.849 137.372 291.62 137.626 291.333 137.821C291.045 138.016 290.724 138.157 290.368 138.242V138.348C290.756 138.37 291.127 138.489 291.482 138.705C291.84 138.918 292.133 139.22 292.361 139.611C292.588 140.001 292.702 140.474 292.702 141.028C292.702 141.592 292.565 142.1 292.291 142.551C292.018 142.999 291.606 143.352 291.056 143.611C290.505 143.87 289.813 144 288.978 144H284.562ZM286.539 142.349H288.664C289.381 142.349 289.898 142.212 290.214 141.939C290.534 141.662 290.693 141.306 290.693 140.873C290.693 140.55 290.613 140.259 290.454 140C290.294 139.737 290.067 139.531 289.772 139.382C289.477 139.229 289.126 139.153 288.717 139.153H286.539V142.349ZM286.539 137.73H288.493C288.834 137.73 289.142 137.668 289.415 137.544C289.688 137.416 289.903 137.237 290.059 137.006C290.219 136.772 290.299 136.495 290.299 136.175C290.299 135.752 290.15 135.404 289.852 135.131C289.557 134.858 289.118 134.721 288.536 134.721H286.539V137.73ZM297.958 144.16C297.137 144.16 296.429 143.989 295.832 143.648C295.239 143.304 294.783 142.817 294.463 142.189C294.144 141.557 293.984 140.813 293.984 139.957C293.984 139.115 294.144 138.377 294.463 137.741C294.786 137.102 295.237 136.605 295.816 136.25C296.395 135.891 297.075 135.712 297.856 135.712C298.361 135.712 298.837 135.793 299.284 135.957C299.735 136.116 300.133 136.365 300.477 136.702C300.825 137.04 301.099 137.469 301.297 137.991C301.496 138.51 301.596 139.128 301.596 139.845V140.436H294.889V139.137H299.747C299.744 138.767 299.664 138.439 299.508 138.151C299.351 137.86 299.133 137.631 298.853 137.464C298.576 137.297 298.252 137.214 297.883 137.214C297.489 137.214 297.143 137.31 296.844 137.501C296.546 137.69 296.313 137.938 296.147 138.247C295.983 138.553 295.9 138.888 295.896 139.254V140.388C295.896 140.864 295.983 141.273 296.157 141.614C296.331 141.951 296.574 142.21 296.887 142.391C297.199 142.569 297.565 142.658 297.984 142.658C298.265 142.658 298.519 142.619 298.746 142.54C298.973 142.459 299.17 142.34 299.337 142.184C299.504 142.027 299.63 141.834 299.715 141.603L301.516 141.805C301.402 142.281 301.186 142.697 300.866 143.052C300.55 143.403 300.145 143.677 299.652 143.872C299.158 144.064 298.593 144.16 297.958 144.16ZM307.371 135.818V137.31H302.535V135.818H307.371ZM303.744 144V135.046C303.744 134.495 303.857 134.037 304.085 133.672C304.316 133.306 304.624 133.032 305.012 132.851C305.399 132.67 305.828 132.58 306.301 132.58C306.634 132.58 306.931 132.606 307.19 132.659C307.449 132.713 307.641 132.761 307.765 132.803L307.382 134.295C307.3 134.27 307.197 134.245 307.073 134.22C306.949 134.192 306.81 134.178 306.657 134.178C306.299 134.178 306.045 134.265 305.896 134.439C305.75 134.609 305.677 134.854 305.677 135.174V144H303.744ZM312.143 144.16C311.344 144.16 310.651 143.984 310.065 143.632C309.479 143.281 309.025 142.789 308.702 142.157C308.382 141.525 308.222 140.786 308.222 139.941C308.222 139.096 308.382 138.355 308.702 137.72C309.025 137.084 309.479 136.591 310.065 136.239C310.651 135.887 311.344 135.712 312.143 135.712C312.942 135.712 313.634 135.887 314.22 136.239C314.806 136.591 315.259 137.084 315.578 137.72C315.902 138.355 316.063 139.096 316.063 139.941C316.063 140.786 315.902 141.525 315.578 142.157C315.259 142.789 314.806 143.281 314.22 143.632C313.634 143.984 312.942 144.16 312.143 144.16ZM312.153 142.615C312.587 142.615 312.949 142.496 313.24 142.258C313.531 142.017 313.748 141.694 313.89 141.289C314.035 140.884 314.108 140.433 314.108 139.936C314.108 139.435 314.035 138.982 313.89 138.577C313.748 138.169 313.531 137.844 313.24 137.603C312.949 137.361 312.587 137.24 312.153 137.24C311.709 137.24 311.34 137.361 311.045 137.603C310.754 137.844 310.536 138.169 310.39 138.577C310.248 138.982 310.177 139.435 310.177 139.936C310.177 140.433 310.248 140.884 310.39 141.289C310.536 141.694 310.754 142.017 311.045 142.258C311.34 142.496 311.709 142.615 312.153 142.615ZM317.7 144V135.818H319.569V137.182H319.655C319.804 136.71 320.059 136.346 320.422 136.09C320.787 135.831 321.205 135.701 321.673 135.701C321.78 135.701 321.899 135.706 322.03 135.717C322.165 135.724 322.277 135.737 322.366 135.754V137.528C322.284 137.5 322.155 137.475 321.977 137.453C321.803 137.429 321.634 137.416 321.471 137.416C321.119 137.416 320.803 137.493 320.523 137.645C320.246 137.794 320.028 138.002 319.868 138.268C319.708 138.535 319.628 138.842 319.628 139.19V144H317.7ZM326.932 144.16C326.112 144.16 325.403 143.989 324.807 143.648C324.214 143.304 323.758 142.817 323.438 142.189C323.118 141.557 322.959 140.813 322.959 139.957C322.959 139.115 323.118 138.377 323.438 137.741C323.761 137.102 324.212 136.605 324.791 136.25C325.37 135.891 326.05 135.712 326.831 135.712C327.335 135.712 327.811 135.793 328.259 135.957C328.71 136.116 329.107 136.365 329.452 136.702C329.8 137.04 330.073 137.469 330.272 137.991C330.471 138.51 330.57 139.128 330.57 139.845V140.436H323.864V139.137H328.722C328.718 138.767 328.639 138.439 328.482 138.151C328.326 137.86 328.108 137.631 327.827 137.464C327.55 137.297 327.227 137.214 326.858 137.214C326.464 137.214 326.117 137.31 325.819 137.501C325.521 137.69 325.288 137.938 325.121 138.247C324.958 138.553 324.874 138.888 324.871 139.254V140.388C324.871 140.864 324.958 141.273 325.132 141.614C325.306 141.951 325.549 142.21 325.862 142.391C326.174 142.569 326.54 142.658 326.959 142.658C327.239 142.658 327.493 142.619 327.721 142.54C327.948 142.459 328.145 142.34 328.312 142.184C328.479 142.027 328.605 141.834 328.69 141.603L330.491 141.805C330.377 142.281 330.16 142.697 329.841 143.052C329.525 143.403 329.12 143.677 328.626 143.872C328.133 144.064 327.568 144.16 326.932 144.16ZM336.008 144V133.091H343.103V134.748H337.984V137.709H342.735V139.366H337.984V142.343H343.145V144H336.008ZM352.342 135.818L349.428 144H347.298L344.384 135.818H346.44L348.32 141.896H348.406L350.291 135.818H352.342ZM357.02 144.16C356.2 144.16 355.491 143.989 354.895 143.648C354.302 143.304 353.845 142.817 353.526 142.189C353.206 141.557 353.046 140.813 353.046 139.957C353.046 139.115 353.206 138.377 353.526 137.741C353.849 137.102 354.3 136.605 354.879 136.25C355.458 135.891 356.138 135.712 356.919 135.712C357.423 135.712 357.899 135.793 358.347 135.957C358.797 136.116 359.195 136.365 359.54 136.702C359.888 137.04 360.161 137.469 360.36 137.991C360.559 138.51 360.658 139.128 360.658 139.845V140.436H353.952V139.137H358.81C358.806 138.767 358.726 138.439 358.57 138.151C358.414 137.86 358.196 137.631 357.915 137.464C357.638 137.297 357.315 137.214 356.946 137.214C356.551 137.214 356.205 137.31 355.907 137.501C355.609 137.69 355.376 137.938 355.209 138.247C355.046 138.553 354.962 138.888 354.959 139.254V140.388C354.959 140.864 355.046 141.273 355.22 141.614C355.394 141.951 355.637 142.21 355.949 142.391C356.262 142.569 356.628 142.658 357.047 142.658C357.327 142.658 357.581 142.619 357.809 142.54C358.036 142.459 358.233 142.34 358.4 142.184C358.567 142.027 358.693 141.834 358.778 141.603L360.578 141.805C360.465 142.281 360.248 142.697 359.929 143.052C359.612 143.403 359.208 143.677 358.714 143.872C358.22 144.064 357.656 144.16 357.02 144.16ZM362.29 144V135.818H364.159V137.182H364.244C364.394 136.71 364.649 136.346 365.012 136.09C365.377 135.831 365.795 135.701 366.263 135.701C366.37 135.701 366.489 135.706 366.62 135.717C366.755 135.724 366.867 135.737 366.956 135.754V137.528C366.874 137.5 366.744 137.475 366.567 137.453C366.393 137.429 366.224 137.416 366.061 137.416C365.709 137.416 365.393 137.493 365.113 137.645C364.836 137.794 364.617 138.002 364.458 138.268C364.298 138.535 364.218 138.842 364.218 139.19V144H362.29ZM369.684 147.068C369.422 147.068 369.178 147.047 368.955 147.004C368.734 146.965 368.559 146.919 368.427 146.866L368.875 145.364C369.155 145.445 369.406 145.484 369.626 145.481C369.846 145.477 370.04 145.408 370.206 145.273C370.377 145.142 370.521 144.922 370.638 144.613L370.803 144.17L367.836 135.818H369.881L371.767 141.997H371.852L373.743 135.818H375.794L372.518 144.991C372.366 145.424 372.163 145.795 371.911 146.104C371.659 146.417 371.35 146.654 370.984 146.818C370.622 146.985 370.189 147.068 369.684 147.068ZM380.419 144.16C379.62 144.16 378.928 143.984 378.342 143.632C377.756 143.281 377.301 142.789 376.978 142.157C376.658 141.525 376.499 140.786 376.499 139.941C376.499 139.096 376.658 138.355 376.978 137.72C377.301 137.084 377.756 136.591 378.342 136.239C378.928 135.887 379.62 135.712 380.419 135.712C381.218 135.712 381.911 135.887 382.496 136.239C383.082 136.591 383.535 137.084 383.855 137.72C384.178 138.355 384.339 139.096 384.339 139.941C384.339 140.786 384.178 141.525 383.855 142.157C383.535 142.789 383.082 143.281 382.496 143.632C381.911 143.984 381.218 144.16 380.419 144.16ZM380.43 142.615C380.863 142.615 381.225 142.496 381.516 142.258C381.808 142.017 382.024 141.694 382.166 141.289C382.312 140.884 382.385 140.433 382.385 139.936C382.385 139.435 382.312 138.982 382.166 138.577C382.024 138.169 381.808 137.844 381.516 137.603C381.225 137.361 380.863 137.24 380.43 137.24C379.986 137.24 379.616 137.361 379.322 137.603C379.031 137.844 378.812 138.169 378.667 138.577C378.525 138.982 378.453 139.435 378.453 139.936C378.453 140.433 378.525 140.884 378.667 141.289C378.812 141.694 379.031 142.017 379.322 142.258C379.616 142.496 379.986 142.615 380.43 142.615ZM387.904 139.206V144H385.976V135.818H387.819V137.208H387.915C388.103 136.75 388.403 136.386 388.815 136.116C389.231 135.847 389.744 135.712 390.355 135.712C390.919 135.712 391.411 135.832 391.83 136.074C392.253 136.315 392.579 136.665 392.81 137.123C393.045 137.581 393.16 138.137 393.157 138.79V144H391.228V139.089C391.228 138.542 391.086 138.114 390.802 137.805C390.522 137.496 390.133 137.342 389.636 137.342C389.298 137.342 388.998 137.416 388.735 137.565C388.476 137.711 388.272 137.922 388.123 138.199C387.977 138.476 387.904 138.812 387.904 139.206ZM398.739 144.16C397.919 144.16 397.21 143.989 396.614 143.648C396.021 143.304 395.564 142.817 395.245 142.189C394.925 141.557 394.765 140.813 394.765 139.957C394.765 139.115 394.925 138.377 395.245 137.741C395.568 137.102 396.019 136.605 396.598 136.25C397.176 135.891 397.856 135.712 398.638 135.712C399.142 135.712 399.618 135.793 400.065 135.957C400.516 136.116 400.914 136.365 401.258 136.702C401.606 137.04 401.88 137.469 402.079 137.991C402.278 138.51 402.377 139.128 402.377 139.845V140.436H395.671V139.137H400.529C400.525 138.767 400.445 138.439 400.289 138.151C400.133 137.86 399.914 137.631 399.634 137.464C399.357 137.297 399.034 137.214 398.664 137.214C398.27 137.214 397.924 137.31 397.626 137.501C397.327 137.69 397.095 137.938 396.928 138.247C396.764 138.553 396.681 138.888 396.677 139.254V140.388C396.677 140.864 396.764 141.273 396.938 141.614C397.112 141.951 397.356 142.21 397.668 142.391C397.981 142.569 398.347 142.658 398.766 142.658C399.046 142.658 399.3 142.619 399.527 142.54C399.755 142.459 399.952 142.34 400.119 142.184C400.285 142.027 400.411 141.834 400.497 141.603L402.297 141.805C402.184 142.281 401.967 142.697 401.647 143.052C401.331 143.403 400.926 143.677 400.433 143.872C399.939 144.064 399.375 144.16 398.739 144.16ZM407.814 144V133.091H414.909V134.748H409.79V137.709H414.542V139.366H409.79V142.343H414.952V144H407.814ZM418.769 133.091V144H416.84V133.091H418.769ZM427.218 137.981L425.46 138.173C425.411 137.995 425.324 137.828 425.199 137.672C425.079 137.516 424.915 137.39 424.709 137.294C424.503 137.198 424.251 137.15 423.953 137.15C423.552 137.15 423.214 137.237 422.941 137.411C422.671 137.585 422.538 137.81 422.541 138.087C422.538 138.325 422.625 138.519 422.802 138.668C422.983 138.817 423.282 138.94 423.697 139.036L425.093 139.334C425.867 139.501 426.442 139.765 426.819 140.127C427.199 140.49 427.39 140.964 427.394 141.55C427.39 142.065 427.239 142.519 426.941 142.913C426.646 143.304 426.236 143.609 425.711 143.83C425.185 144.05 424.581 144.16 423.9 144.16C422.898 144.16 422.092 143.95 421.481 143.531C420.87 143.109 420.506 142.521 420.389 141.768L422.27 141.587C422.355 141.956 422.536 142.235 422.813 142.423C423.09 142.612 423.45 142.706 423.894 142.706C424.352 142.706 424.72 142.612 424.997 142.423C425.277 142.235 425.418 142.002 425.418 141.725C425.418 141.491 425.327 141.298 425.146 141.145C424.968 140.992 424.691 140.875 424.315 140.793L422.919 140.5C422.135 140.337 421.554 140.062 421.178 139.675C420.801 139.284 420.615 138.79 420.618 138.194C420.615 137.69 420.752 137.253 421.028 136.884C421.309 136.511 421.698 136.223 422.195 136.021C422.696 135.815 423.273 135.712 423.926 135.712C424.885 135.712 425.64 135.916 426.19 136.324C426.744 136.733 427.087 137.285 427.218 137.981ZM432.606 144.16C431.786 144.16 431.077 143.989 430.481 143.648C429.888 143.304 429.431 142.817 429.112 142.189C428.792 141.557 428.632 140.813 428.632 139.957C428.632 139.115 428.792 138.377 429.112 137.741C429.435 137.102 429.886 136.605 430.465 136.25C431.044 135.891 431.724 135.712 432.505 135.712C433.009 135.712 433.485 135.793 433.932 135.957C434.383 136.116 434.781 136.365 435.126 136.702C435.474 137.04 435.747 137.469 435.946 137.991C436.145 138.51 436.244 139.128 436.244 139.845V140.436H429.538V139.137H434.396C434.392 138.767 434.312 138.439 434.156 138.151C434 137.86 433.782 137.631 433.501 137.464C433.224 137.297 432.901 137.214 432.532 137.214C432.137 137.214 431.791 137.31 431.493 137.501C431.195 137.69 430.962 137.938 430.795 138.247C430.632 138.553 430.548 138.888 430.545 139.254V140.388C430.545 140.864 430.632 141.273 430.806 141.614C430.98 141.951 431.223 142.21 431.535 142.391C431.848 142.569 432.214 142.658 432.633 142.658C432.913 142.658 433.167 142.619 433.394 142.54C433.622 142.459 433.819 142.34 433.986 142.184C434.153 142.027 434.279 141.834 434.364 141.603L436.164 141.805C436.051 142.281 435.834 142.697 435.514 143.052C435.198 143.403 434.794 143.677 434.3 143.872C433.806 144.064 433.242 144.16 432.606 144.16ZM440.235 133.091L440.059 140.793H438.344L438.174 133.091H440.235ZM439.202 144.117C438.879 144.117 438.602 144.004 438.371 143.776C438.144 143.549 438.03 143.272 438.03 142.945C438.03 142.626 438.144 142.352 438.371 142.125C438.602 141.898 438.879 141.784 439.202 141.784C439.518 141.784 439.791 141.898 440.022 142.125C440.257 142.352 440.374 142.626 440.374 142.945C440.374 143.162 440.319 143.359 440.209 143.537C440.102 143.714 439.96 143.856 439.782 143.963C439.608 144.066 439.415 144.117 439.202 144.117Z" fill="#1B5E20"/>
</svg>
